<svg xmlns="http://www.w3.org/2000/svg" viewBox="0 0 40.63379 85.03937"><defs><style>.cls-1{fill:#f0da8c;}.cls-2{fill:#e6bac2;stroke:#883c4b;}.cls-2,.cls-3,.cls-5,.cls-6,.cls-7,.cls-8{stroke-miterlimit:10;}.cls-2,.cls-3,.cls-7{stroke-width:0.2px;}.cls-3{fill:#d2aa6b;stroke:#ad7532;}.cls-4{fill:#fff;opacity:0.6;isolation:isolate;}.cls-5{fill:#dbc6e0;}.cls-5,.cls-6{stroke:#794f7f;}.cls-5,.cls-6,.cls-8{stroke-width:0.2px;}.cls-6{fill:#a57eb6;}.cls-7{fill:#c57381;stroke:#672c1f;}.下载 (2).svg{fill:#bad4ea;stroke:#285192;}</style></defs><g id="图层_2" data-name="图层 2"><g id="图层_1-2" data-name="图层 1"><g id="图层_2-2" data-name="图层 2"><g id="图层_1-2-2" data-name="图层 1-2"><path class="cls-1" d="M34.719,50.69709c.50448-.50437.30273-1.21051.2018-2.21924C34.82,47.97348,34.82,47.57,34.719,46.96473a16.18369,16.18369,0,0,1,0-3.12707,27.38815,27.38815,0,0,0-.10088-2.92536l.10088.1009V30.9258c-.10088-2.52185-.20175-7.86822-.40356-8.27168l-.10093-.10091H34.1137l.10085-5.64892v-7.162l.2018-6.85948c0-.30259-.101-1.71488-.70634-1.81573s-3.10255-.00275-4.13673,0c-4.33971.01153-6.861.60529-7.36545,1.91664a5.05962,5.05962,0,0,0-1.76033-.71922,2.96491,2.96491,0,0,0-2.04152.14906.29389.29389,0,0,1-.37469-.24575,2.19448,2.19448,0,0,0-.35937-.92115c-.30267-.3026-.60038-.26031-2.11886-.10084-.32708.03435-.98457.06649-1.31165.10084-1.419.14906-2.01793.30262-2.32061.60529h-.10086a12.98642,12.98642,0,0,0-3.95308-.04329A41.45452,41.45452,0,0,0,8.385,6.51428V6.716c-.10088,1.614-.30269,3.22792-.50449,4.741-.10087.70611-.20181,2.21925.50449,2.62276.10087.10085.2018.20176.10087.40346L7.477,15.89557c-.10094.10084-.20181.20176-.30274.20176-.40359,0-.80716,1.61395-.908,2.32008-.2018,1.2105,1.21078,13.11366,1.31165,13.618l.20181,1.31135.30267-1.2105c.20181-.70606.70629-2.421.9081-2.9253l3.12777-2.82445v-.20177L16.15411,22.755l5.34748.20176v.10085h5.95293l4.23761,4.53933c.20181,1.71487.30275,3.228.30275,3.32889,0,0,0,.10086.20173.2017v8.17082l.30275.20176a.75527.75527,0,0,0-.60542.70607c-.10087,1.10964-.20181,2.11838-.20181,3.228,0,.10092,0,.10092.20181.20176v2.11837c0,1.0087-.20181,1.81574-.20181,2.421-.10083,1.41225-.10083,2.11836.40361,2.62269a1.939,1.939,0,0,0,1.21077.40352A1.567,1.567,0,0,0,34.719,50.69709ZM4.88026,31.3179c-.56178.54256-.33712,1.30216-.22473,2.38726.11234.54256.11234.97657.22473,1.62768a16.82045,16.82045,0,0,1,0,3.36382,28.464,28.464,0,0,0,.11233,3.14685L4.88026,41.735V52.58608c.11233,2.71278.22466,8.46392.44938,8.89793l.1124.10856h.11231L5.442,67.66916v7.70427l-.22472,7.37882c0,.32549.11246,1.84471.78656,1.95319s3.45491.003,4.60654,0c4.83257-.01239,7.64021-.65112,8.20194-2.06175a5.74675,5.74675,0,0,0,1.96025.77368A3.409,3.409,0,0,0,23.046,83.257a.32777.32777,0,0,1,.41725.26436,2.31641,2.31641,0,0,0,.40018.99088c.337.32552.66857.28,2.3595.10849.36423-.037,1.09639-.07153,1.46061-.10849,1.58021-.16034,2.24711-.32552,2.58417-.6511H30.38a14.96469,14.96469,0,0,0,4.402.04655c.11233-.10849-.12758-1.264-.577-5.0619v-.217c.11233-1.73616.33706-3.47231.56178-5.1.11233-.75957.22473-2.38726-.56178-2.82132-.11233-.1085-.22473-.217-.11233-.434l1.12346-1.5192c.1124-.10848.22472-.217.33712-.217.44943,0,.89883-1.73615,1.01116-2.49574.22473-1.30214-1.34828-14.1065-1.46061-14.649l-.22472-1.41064-.41265-3.98813c-.22472.75952-2.61651,1.01892-2.84123,1.56143l-1.433,10.099-1.44693,6.21866-6.7566,3.159-4.8164-1.51235L12.64013,61.644l-3.4516-5.50625a7.70536,7.70536,0,0,1,.406-3.3597s0-.10849-.22465-.217l2.04063-7.78735-.33712-.217a.82155.82155,0,0,0,.67417-.75952c.11233-1.19366-1.20084-3.81955-1.20084-5.01314,0-.10856,0-.10856-.22472-.217L9.04054,36.37139v-2.89c.11228-1.51918.87876-7.37836.317-7.92087-.38581-.28751-2.41709,5.2084-2.90437,5.21482A1.78021,1.78021,0,0,0,4.88026,31.3179Z"/><polygon class="cls-2" points="17.754 65.34 20.409 67.096 20.68 67.105 17.754 65.34"/><path class="cls-2" d="M4.79159,69.20355l-.05863.00727.00555.012A.104.104,0,0,0,4.79159,69.20355Z"/><path class="cls-3" d="M34.77006,50.69709c.50448-.50437.30274-1.21051.20181-2.21924-.10088-.50437-.10088-.90784-.20181-1.51312a16.18369,16.18369,0,0,1,0-3.12707,27.38553,27.38553,0,0,0-.10088-2.92536l.10088.1009V30.9258c-.10088-2.52185-.20175-7.86822-.40355-8.27168l-.10094-.10091h-.10085l.10085-5.64892v-7.162l.20181-6.85948c0-.30259-.101-1.71488-.70634-1.81573s-3.10255-.00275-4.13673,0c-4.33971.01153-6.861.60529-7.36545,1.91664a5.05969,5.05969,0,0,0-1.76033-.71922,2.96491,2.96491,0,0,0-2.04152.14906.29389.29389,0,0,1-.3747-.24575,2.19436,2.19436,0,0,0-.35936-.92115c-.30268-.3026-.60038-.26031-2.11886-.10084-.32709.03435-.98457.06649-1.31165.10084-1.419.14906-2.01793.30262-2.32062.60529H11.871a12.98636,12.98636,0,0,0-3.95307-.04329,41.45538,41.45538,0,0,0,.51817,4.70565V6.716c-.10087,1.614-.30268,3.22792-.50449,4.741-.10087.70611-.20181,2.21925.50449,2.62276.10087.10085.20181.20176.10087.40346L7.52806,15.89557c-.10094.10084-.20181.20176-.30275.20176-.40359,0-.80715,1.61395-.908,2.32008-.20181,1.2105,1.21078,13.11366,1.31165,13.618l.2018,1.31135.30268-1.2105c.2018-.70606.70628-2.421.90809-2.9253l3.12777-2.82445v-.20177L16.20514,22.755l5.34747.20176v.10085h5.95293l4.23762,4.53933c.2018,1.71487.30274,3.228.30274,3.32889,0,0,0,.10086.20174.2017v8.17082l.30274.20176a.75527.75527,0,0,0-.60542.70607c-.10087,1.10964-.2018,2.11838-.2018,3.228,0,.10092,0,.10092.2018.20176v2.11837c0,1.0087-.2018,1.81574-.2018,2.421-.10083,1.41225-.10083,2.11836.40361,2.62269a1.93893,1.93893,0,0,0,1.21077.40352A1.567,1.567,0,0,0,34.77006,50.69709Zm-3.10553-29.331c-.20181-.40351-.30269-.90789-.50449-1.31134l-.70629-2.1184L30.4512,17.921a.60585.60585,0,0,1,.507-.69075h2.42152c.30268,0,.40355.30257.40355.50433L33.68239,22.173c.10087.30261-.10088.30261-.20181.30261H32.26981c-.10087,0-.20174,0-.30268-.20169Zm-2.11888-6.456.20174.60528a4.52419,4.52419,0,0,1,.30666,1.497,1.39188,1.39188,0,0,1-.81114.72223,2.97729,2.97729,0,0,1-1.009.10086,2.8463,2.8463,0,0,1-1.51345-1.10959,5.2705,5.2705,0,0,1-.70623-1.51312c-.10093-.30267.10088-.40352.20175-.40352l2.62335-.20176C29.24291,14.50662,29.44472,14.50662,29.54565,14.91011Zm-.80722-.70611-2.72417.10081c-.2018,0-.30274-.10085-.4036-.30261l-1.009-2.32009c-.10087-.20172-.20181-.40348.2018-.50433.30268,0,2.8251-.807,2.8251-.70612.40361-.10088.70629-.10088.80715.40345l.60542,2.92538C29.142,14.10313,29.04116,14.204,28.73843,14.204ZM32.971,5.90845l-2.35368-.41263c-.19417-.05495-.88607-.08007-.80733-.63434.09-.63328.27186-1.87006.38719-2.52911a.50585.50585,0,0,1,.54245-.48939c.40157-.01152,2.05578-.10291,2.15633-.11148.6039-.05147,1.02565.18568.98537.69842l-.226,2.78615C33.593,5.63,33.39456,6.01671,32.971,5.90845ZM29.42453,8.7667l.31023-2.25063c.07967-.40184.57788-.527,1.19832-.40385.10331.0205,1.81464.31936,2.23261.38367.43284.0666.46406.276.452.4531-.03581.52529-.00749,1.74148-.06375,2.24336-.04925.43925-.7801.3632-.99659.37889l-2.58044-.175C29.50737,9.42149,29.39141,9.09521,29.42453,8.7667Zm-.29588,2.00861a.6654.6654,0,0,1,.71965-.60627h3.53146c.30263,0,.4035.1009.50444.60522v5.44722c-.101.50438-.30269.60522-.60542.60522H30.774c-.42147,0-1.43015-4.74109-1.632-5.85068A.66514.66514,0,0,1,29.12865,10.77531ZM27.93131,22.6774l.40361-4.13581c0-.10091,0-.20176.10087-.20176l1.21077-.10084c.20177,0,.30264,0,.50444.40345a27.13561,27.13561,0,0,1,1.009,2.72361,7.43156,7.43156,0,0,1,.40361,1.41225V22.98c.10088.807.10088,1.71486.20175,2.7236v1.10965Zm-5.65023-7.76733c0-.20169.2018-.30261.40354-.30261H25.0053c.10087,0,.20175,0,.20175.20176a3.86624,3.86624,0,0,0,1.61438,3.02623c.26269.16422.97166.46482.935.81329-.10678,1.01439-.2287,3.82688-.2287,3.82688H22.28108V14.91007Zm-5.852,4.23672a.217.217,0,0,1,.20175-.20175l4.944-.2017c.10088,0,.10088,0,.10088.10084v3.63144L16.53,22.37477Zm-.30273-.70617a10.56609,10.56609,0,0,0-1.21071.20176c-1.14222.30011-.60542-.20172-.2018-.50433,1.31554-1.02719,2.52169-2.18083,3.73318-3.32883a1.14433,1.14433,0,0,1,.70623-.40352c.5793-.03176,2.32067,0,2.32067,0a.217.217,0,0,1,.20175.20176v3.228c0,.30261-.10088.40353-.30268.40353C21.373,18.239,17.43218,18.30726,16.12634,18.44062Zm-.10087-2.32a1.55116,1.55116,0,0,1-.40357.60529l-3.02691,2.421c-.20174.20176-.20174-.20175-.20174-.20175V12.75055c0-.51923.10088-.76575.40355-.76575l3.935.10085.02553.00638a.40293.40293,0,0,1,.27714.498c-.40361,1.41225-.80716,2.82446-1.009,3.53059ZM9.16458,20.45818c0-.10085.10087-.20169.30267-.20169l1.91708-.10092c.20175,0,.40354.10088.40354.50433V26.208L9.36635,28.42721c0-1.41226,0-4.94285-.2018-7.162Zm-.233-3.82525c.86755.01158,2.75535.29462,2.75535.29462a.21706.21706,0,0,1,.20181.20176v2.01747c0,.40353-.20181.40353-.40362.40353L9.46188,19.684a.40459.40459,0,0,1-.40941-.2559,15.477,15.477,0,0,1-.6431-2.164A.51616.51616,0,0,1,8.93161,16.63293Zm-1.58323.29462c.10087-.10085.10087-.30261.30274-.10085a11.42789,11.42789,0,0,1,.95542,3.11277c.31155,2.24818.15442,8.9921.15442,8.9921-.2018.60523-.40355,1.31136-.60536,1.91664-.40361-4.035-1.71841-11.39884-1.51666-12.30667.03716-.548.54554-1.08974.70951-1.614ZM9.26548,14.204a.59294.59294,0,0,1,.50444-.20176,8.70278,8.70278,0,0,0,1.71526.10085.35639.35639,0,0,1,.40361.40353v1.51311c-.10094.3026-.2018.3026-.40361.3026l-3.12777-.20176c-.10093,0-.20181-.10084-.10093-.30261ZM8.25642,11.48039c.16673-1.34678.3898-2.6858.46994-4.04011A.68375.68375,0,0,1,9.463,6.79217c.52469.04162,1.20337.1005,1.51772.14893.42452.06542.84078.20074.84078.806a49.10269,49.10269,0,0,1-.1345,5.44814l.0001.00085a.45631.45631,0,0,1-.40371.50348c-.908,0-1.81616-.10091-2.3206-.10091a.68126.68126,0,0,1-.60536-.40346A4.26849,4.26849,0,0,1,8.25642,11.48039Zm3.5314-5.548a.62736.62736,0,0,1-.60535.40346,14.95854,14.95854,0,0,1-1.87-.13536.523.523,0,0,1-.44288-.415C8.6429,4.65675,8.326,2.75468,8.73528,2.36634c.57142-.54216,1.892-.28157,2.38-.18424a.64008.64008,0,0,1,.60911.6272A15.74477,15.74477,0,0,1,11.78782,5.93236Zm.40358,14.52578a.68107.68107,0,0,1,.40356-.60521l2.926-.807c.20181-.1009.40362,0,.40362.30261l.10087,3.02622L12.1914,25.50184ZM17.45183,1.582a2.50737,2.50737,0,0,1-.01378,2.63542c-.50448.70617-5.14577,1.71483-5.14577,1.2105a17.21549,17.21549,0,0,1,.00439-3.25013c.20179-.30257.70629-.30257,2.11887-.50433l1.21071-.10085a10.41823,10.41823,0,0,1,1.41258-.10091c.2018,0,.30267,0,.40361.10091Zm.38973,5.86348a9.056,9.056,0,0,1-.10088,2.11833,18.43488,18.43488,0,0,1-.40361,1.81573c-.07689.30961-.50444.30266-.50444.30266l-4.03587-.20177a.424.424,0,0,1-.40355-.40352V6.5375c0-.20172,0-.50433.20175-.50433a12.83509,12.83509,0,0,0,2.26778-.26405c1.03507-.22785,1.80257-.63386,2.00987-.6338.36568.00012.598.34918.7512.67958A5.65514,5.65514,0,0,1,17.84156,7.44544Zm-.908,8.17077c-.30275.3026-.30275,0-.20181-.30262a34.7373,34.7373,0,0,1,.908-3.42974,11.92379,11.92379,0,0,0,.49253-2.31774c.037-.3004.27723-.53023.71228-.05276a2.303,2.303,0,0,0,1.21674.75656,3.84291,3.84291,0,0,0,1.88367-.14728,1.98682,1.98682,0,0,1,.87587-.19379c.495.06671.79007.573.99982,1.02626a6.15717,6.15717,0,0,1,.77447,2.63559.456.456,0,0,1-.101.34007.475.475,0,0,1-.34707.08344c-1.2991-.03882-2.50986-.041-3.98646-.041a3.41856,3.41856,0,0,0-1.69319.26376A7.56857,7.56857,0,0,0,16.93357,15.61621Zm6.0538-7.66641c.10086.60522-.01509,1.16635-.21231,1.27588a4.04442,4.04442,0,0,1-2.29807.439A2.09634,2.09634,0,0,1,18.82161,8.6399a3.28825,3.28825,0,0,1-.47553-1.9006c.01275-.42852,0-1.71487,0-1.71487,0-1.614,0-1.91656.20181-2.11832.40361-.40353,1.31168-.30262,1.81612-.20177a2.66178,2.66178,0,0,1,1.61438.70613C22.37685,3.84385,22.98737,7.748,22.98737,7.9498Zm5.95286-6.456c.2079.0112.69364.121.62818.91194-.05061.61154-.35544,2.04069-.44217,2.92312-.08187.83288-.23859,1.95-.35142,3.32907a1.273,1.273,0,0,1-.93358,1.12473s-2.06181.48687-2.73507.69841c-.606.19041-1.136-.06763-1.20033-.436-.31756-1.818-1.0351-6.22643-1.12026-6.53384C22.53731,2.61508,25.308,1.393,28.94025,1.49384Zm5.04483,21.88968c0,.4035.20183,4.94285.30268,7.46465h-.10087l-1.31165-.1009h-.2018c0-.40346-.10087-1.614-.20181-3.228l-.30267-4.035c0-.30256.10087-.50432.30267-.50432h1.2108c.10087,0,.30267,0,.30267.40352Zm.30268,16.54341c-.10087-.10092-.30268-.10092-.40354-.20176l-1.009-.70619V31.15082c.30269,0,.80717.10085,1.41252.10085Zm0,3.53054a13.92724,13.92724,0,0,1-2.01793-.30268,21.77632,21.77632,0,0,1,.30269-2.92531c0-.20176.10087-.30261.20175-.30261h.20186c.20181.10085.4036.10085.60541.2017l.60536.40353A13.951,13.951,0,0,1,34.28775,43.45747Zm.10093,6.85942a1.51085,1.51085,0,0,1-1.81613.10085c-.40361-.3026-.30274-.90783-.20181-2.21924,0-.60523.10087-1.4122.20181-2.52179V43.65923a11.0359,11.0359,0,0,0,1.71519.30261,15.16953,15.16953,0,0,0,0,3.02622c.10094.60521.10094,1.10959.20181,1.5131C34.59048,49.50991,34.69133,50.01427,34.38868,50.31689Z"/><path class="cls-3" d="M5.0247,31.503c-.56178.54256-.33712,1.30216-.22473,2.38726.11234.54256.11234.97657.22473,1.62768a16.82045,16.82045,0,0,1,0,3.36382A28.464,28.464,0,0,0,5.137,42.02856L5.0247,41.92V52.77113c.11233,2.71278.22466,8.46392.44938,8.89793l.1124.10855h.11231l-.11231,6.0766v7.70427L5.36176,82.9373c0,.32549.11246,1.84471.78655,1.95319s3.45492.003,4.60655,0c4.83257-.01239,7.64021-.65112,8.20194-2.06175a5.74675,5.74675,0,0,0,1.96025.77368,3.409,3.409,0,0,0,2.27338-.16035.32777.32777,0,0,1,.41725.26436,2.31641,2.31641,0,0,0,.40018.99088c.337.32552.66856.28,2.3595.10849.36423-.037,1.09638-.07153,1.46061-.10849,1.58021-.16034,2.24711-.32552,2.58417-.6511h.11231a14.96463,14.96463,0,0,0,4.402.04655c.11234-.10849-.12757-1.264-.577-5.0619v-.217c.11233-1.73616.33706-3.47231.56178-5.1.11233-.75957.22473-2.38726-.56178-2.82132-.11233-.1085-.22473-.217-.11233-.434l1.12346-1.5192c.1124-.10848.22472-.217.33712-.217.44943,0,.89883-1.73615,1.01116-2.49574.22473-1.30214-1.34828-14.1065-1.46061-14.649l-.22473-1.41064-.337,1.30216c-.22472.75951-.78649,2.60426-1.01122,3.14677l-3.483,3.0383-.22955,3.71154L26.4599,65.55042l-5.19018,2.1072L13.56786,63.048,8.39537,56.352c-.22473-1.84471-.33713-3.47238-.33713-3.58092,0,0,0-.1085-.22465-.217V43.7647l-.33712-.217a.82157.82157,0,0,0,.67417-.75953c.11233-1.19365.22473-2.27876.22473-3.47236,0-.10856,0-.10856-.22473-.217V36.82c0-1.08508.22473-1.95322.22473-2.60427.11228-1.51918.11228-2.27874-.44945-2.82125a2.20941,2.20941,0,0,0-1.34828-.43408A1.7802,1.7802,0,0,0,5.0247,31.503ZM8.48293,63.05463c.22472.43406.33706.97663.56178,1.41063l.7865,2.27877.00285.01648a.65522.65522,0,0,1-.56458.743H6.573a.48949.48949,0,0,1-.44939-.54251l.11233-4.77446c-.11233-.32551.11233-.32551.22472-.32551H7.80891c.11232,0,.22465,0,.33705.217Zm2.35952,6.94475-.22466-.65111c-.1124-.434-.45663-1.32762-.34148-1.61032a1.53317,1.53317,0,0,1,.90326-.7769,3.427,3.427,0,0,1,1.12356-.10849,3.16534,3.16534,0,0,1,1.68533,1.1936,5.58377,5.58377,0,0,1,.78644,1.62767c.11239.32559-.11234.43407-.22466.43407l-2.92129.217C11.17957,70.43342,10.95484,70.43342,10.84245,69.99938Zm.89889.75956,3.03356-.10845c.22471,0,.33712.1085.44944.32553l1.12356,2.49574c.11232.217.22473.434-.22473.54251-.337,0-3.14594.86815-3.14594.75959-.44945.10851-.7865.10851-.89883-.434L11.40423,71.193C11.2919,70.86745,11.40423,70.75894,11.74134,70.75894ZM7.02813,79.68255l2.621.44387c.21622.05911.9867.08613.899.68236-.10018.68123-.30273,2.01164-.43116,2.72059a.555.555,0,0,1-.60406.52645c-.44718.01239-2.28926.1107-2.40123.11992-.67248.05536-1.14212-.19974-1.09727-.7513l.25168-2.99709C6.33547,79.9821,6.55642,79.56609,7.02813,79.68255Zm3.9492-3.07465-.34547,2.421c-.08872.43228-.64351.56685-1.33442.43443-.115-.02205-2.02073-.34354-2.48616-.41272-.482-.07163-.51677-.29692-.50333-.4874.03988-.56506.00834-1.87333.071-2.4132.05484-.47251.86869-.39071,1.10976-.40758l2.87352.18823C10.88508,75.90354,11.0142,76.25452,10.97733,76.6079Zm.32948-2.16068a.73389.73389,0,0,1-.80138.65217H6.5729c-.337,0-.44933-.10853-.56173-.651V68.58872c.11245-.54256.33706-.651.67418-.651H9.4746c.46935,0,1.59258,5.1,1.8173,6.29363A.69184.69184,0,0,1,11.30681,74.44722ZM12.64013,61.644,12.19068,66.093c0,.10855,0,.217-.11232.217l-1.34829.10848c-.22468,0-.337,0-.56173-.434a28.56589,28.56589,0,0,1-1.12355-2.92982,7.78573,7.78573,0,0,1-.44945-1.51917v-.217c-.11233-.86813-.11233-1.84469-.22466-2.92981V57.195Zm6.29193,8.3554c0,.217-.22473.32551-.44938.32551H15.89845c-.11233,0-.22466,0-.22466-.217a4.12224,4.12224,0,0,0-1.79773-3.25534c-.29252-.17666-1.082-.5-1.04117-.87487.11891-1.09119.25467-4.11661.25467-4.11661l5.8425,4.34045Zm6.85373-3.79785a12.1492,12.1492,0,0,0,1.34821-.217c1.272-.32283.67418.217.22473.54251-1.465,1.105-2.80809,2.346-4.15716,3.58086a1.28564,1.28564,0,0,1-.78645.43407c-.64509.03417-2.58423,0-2.58423,0a.23763.23763,0,0,1-.22465-.217V66.85256c0-.32552.11233-.43407.337-.43407C19.94328,66.41849,24.33165,66.345,25.78579,66.20157Zm.11232,2.4957a1.66609,1.66609,0,0,1,.44941-.65111l3.37068-2.60427c.22465-.217.22465.217.22465.217v6.66351c0,.55855-.11233.82373-.44938.82373l-4.3819-.10849-.02842-.00686a.43163.43163,0,0,1-.30863-.53565c.44945-1.51918.89884-3.0383,1.12355-3.79789Zm7.64009-4.666c0,.10848-.11232.217-.33705.217l-2.13479.10856c-.22466,0-.44938-.10852-.44938-.54252V57.84615l2.69653-2.38726c0,1.51918,0,5.31707.22473,7.70427Zm.25943,4.11485c-.96608-.01245-3.06827-.31692-3.06827-.31692a.2377.2377,0,0,1-.22473-.217V65.44194c0-.43407.22472-.43407.44945-.43407l2.25306-.14381a.45189.45189,0,0,1,.45591.27527,16.226,16.226,0,0,1,.71613,2.32781A.56083.56083,0,0,1,33.79763,68.14611Zm1.763-.31692c-.11232.10848-.11232.32552-.33712.10849a11.98923,11.98923,0,0,1-1.06393-3.34844c-.34692-2.41839-.172-9.67289-.172-9.67289.22472-.65106.44938-1.41065.67411-2.06176.44945,4.34045,1.91357,12.26186,1.68891,13.23842-.04138.58952-.6075,1.17224-.79009,1.73619Zm-2.13482,2.92975a.67225.67225,0,0,1-.56173.217,10.02684,10.02684,0,0,0-1.91006-.10849.4109.4109,0,0,1-.11328,0,.38565.38565,0,0,1-.33617-.43407V68.80575c.1124-.32552.22472-.32552.44945-.32552l3.483.217c.11238,0,.22472.10848.11238.32551Zm1.12367,2.92982c-.18567,1.44875-.43408,2.88913-.52332,4.346a.75276.75276,0,0,1-.82028.69718c-.58428-.04477-1.34-.1081-1.69008-.16021-.47273-.07036-.93628-.21593-.93628-.867a51.03128,51.03128,0,0,1,.14978-5.86062l-.00011-.00091a.49521.49521,0,0,1,.44956-.5416c1.01116,0,2.02243.10855,2.58416.10855a.7596.7596,0,0,1,.67411.434A4.44056,4.44056,0,0,1,34.54951,73.68876ZM30.617,79.65683a.69918.69918,0,0,1,.6741-.434,17.23338,17.23338,0,0,1,2.08242.14561.57455.57455,0,0,1,.49318.44638c.25239,1.2142.60529,3.26029.14952,3.678-.63632.58321-2.10691.30289-2.65026.19819-.50718-.09773-.61845-.31667-.67828-.67469A16.36343,16.36343,0,0,1,30.617,79.65683ZM30.16762,64.0313a.73271.73271,0,0,1-.44938.651l-3.25834.86808c-.22472.10854-.44945,0-.44945-.32552l2.91906-2.177,1.23811-4.44221ZM24.30976,84.3366a2.61946,2.61946,0,0,1,.01535-2.835c.56178-.75964,5.73018-1.84466,5.73018-1.30215a17.8922,17.8922,0,0,1-.0049,3.4962c-.2247.32548-.78649.32548-2.3595.54251l-1.34822.1085a12.00606,12.00606,0,0,1-1.573.10854c-.22472,0-.33705,0-.44945-.10854Zm-.434-6.30741a9.41448,9.41448,0,0,1,.11234-2.2787,19.256,19.256,0,0,1,.44945-1.9532c.08562-.33306.56173-.32558.56173-.32558l4.49422.21705a.46429.46429,0,0,1,.44938.43407v4.883c0,.217,0,.54251-.22465.54251a14.77855,14.77855,0,0,0-2.52534.284c-1.15263.24511-2.00729.68186-2.23813.68179-.40722-.00013-.66587-.37562-.83652-.731A5.88983,5.88983,0,0,1,23.87577,78.02919Zm1.01112-8.78937c.33713-.32552.33713,0,.22472.32553a36.34752,36.34752,0,0,1-1.01115,3.6894A12.449,12.449,0,0,0,23.552,75.748c-.04117.32314-.30872.57038-.79318.05675a2.579,2.579,0,0,0-1.35492-.81383,4.42274,4.42274,0,0,0-2.09761.15842,2.27792,2.27792,0,0,1-.97534.20847c-.55122-.07177-.87979-.61634-1.11337-1.104a6.45736,6.45736,0,0,1-.86242-2.83512.47913.47913,0,0,1,.11243-.36583.54342.54342,0,0,1,.38648-.08975c1.44665.04176,2.79491.04406,4.43922.04406a3.92667,3.92667,0,0,0,1.88547-.28373A8.33767,8.33767,0,0,0,24.88689,69.23982Zm-6.74133,8.24683c-.11233-.651.01679-1.25465.23642-1.37248a4.63551,4.63551,0,0,1,2.55906-.47223,2.34586,2.34586,0,0,1,1.84338,1.10236,3.44412,3.44412,0,0,1,.52953,2.04449c-.0142.461,0,1.84471,0,1.84471,0,1.73619,0,2.06167-.22472,2.2787-.44945.43408-1.46065.32553-2.02239.217a3.01482,3.01482,0,0,1-1.79772-.75959C18.8254,81.90346,18.14556,77.70369,18.14556,77.48665Zm-6.62893,6.94474c-.23151-.012-.77243-.13013-.69953-.981.05636-.65783.39581-2.19518.49239-3.14442.09117-.89594.26569-2.09762.39133-3.58112a1.38261,1.38261,0,0,1,1.0396-1.20988s2.296-.52373,3.0457-.75129c.6748-.20483,1.265.07275,1.33665.469.35362,1.95561,1.15266,6.69785,1.24749,7.02853.27647.96409-2.80888,2.2787-6.85365,2.17022ZM5.89885,60.88444c0-.434-.22475-5.31707-.33705-8.02981h.11232l1.46061.10855h.22473c0,.434.11232,1.73616.22472,3.47237L7.92123,60.776c0,.32548-.11232.54251-.33705.54251H6.23587c-.11232,0-.337,0-.337-.43407ZM5.5618,43.08853c.11232.10855.33705.10855.44937.217l1.12354.75965v8.46387c-.33706,0-.89884-.1085-1.57293-.1085Zm0-3.79784a16.01723,16.01723,0,0,1,2.24711.32559,22.65509,22.65509,0,0,1-.33708,3.14678c0,.217-.11232.32552-.22465.32552H7.02238c-.22473-.10848-.44944-.10848-.67417-.217l-.67411-.43407A14.50174,14.50174,0,0,1,5.56179,39.29069ZM5.4494,31.91194a1.72943,1.72943,0,0,1,2.02238-.10849c.44945.32551.33713.97656.22473,2.38726,0,.651-.11233,1.51912-.22473,2.71272v2.17022a12.68078,12.68078,0,0,0-1.91-.32552,15.76689,15.76689,0,0,0,0-3.25534c-.1124-.651-.1124-1.19359-.22473-1.62766C5.22467,32.78,5.11237,32.23746,5.4494,31.91194Z"/><path class="cls-4" d="M35.31022,11.94818v-.10372l-.00317,0a.10074.10074,0,0,1-.09773-.10367l-.1009-.20743v-.10371h-.1009v.31114C35.10842,11.74075,35.20932,11.94818,35.31022,11.94818Z"/><path class="cls-5" d="M36.98073,4.94438c.05153,1.72325.26568,4.69281-1.25584,4.77578s-1.5738-2.18058-1.594-4.74881C34.10241,1.33778,34.38268.593,35.56607.593S36.89218,1.98322,36.98073,4.94438Z"/><ellipse class="cls-6" cx="35.54414" cy="5.15769" rx="0.95396" ry="1.44821"/><ellipse class="cls-4" cx="35.96892" cy="4.49623" rx="0.16007" ry="0.2413" transform="translate(0.68186 12.79099) rotate(-20.35329)"/><path class="cls-5" d="M37.153,14.12031c.05154,1.72324.26566,4.6928-1.25583,4.77577s-1.5738-2.18058-1.594-4.74881c-.02852-3.63357.25174-4.37833,1.43514-4.37833S37.06442,11.15913,37.153,14.12031Z"/><ellipse class="cls-6" cx="35.71637" cy="14.33359" rx="0.95396" ry="1.44821"/><ellipse class="cls-4" cx="36.14116" cy="13.67214" rx="0.16007" ry="0.2413" transform="translate(-2.49883 13.42379) rotate(-20.35329)"/><path class="cls-5" d="M40.04463,13.45883c.05152,1.72325.26565,4.69281-1.25585,4.77577s-1.5738-2.18057-1.594-4.74881c-.02851-3.63357.2518-4.37832,1.43514-4.37832S39.95607,10.49767,40.04463,13.45883Z"/><path class="cls-5" d="M36.98073,23.24709c.05153,1.72325.26565,4.6928-1.25584,4.77577s-1.5738-2.18057-1.594-4.74881c-.02852-3.63357.25175-4.37832,1.43514-4.37832S36.89218,20.28594,36.98073,23.24709Z"/><path class="cls-5" d="M40.04463,32.67352c.05152,1.72325.26565,4.69281-1.25585,4.77577s-1.5738-2.18058-1.594-4.74881c-.02851-3.63357.2518-4.37832,1.43514-4.37832S39.95607,29.71236,40.04463,32.67352Z"/><path class="cls-5" d="M39.91586,23.056c.05153,1.85362.26567,5.0478-1.25583,5.137s-1.5738-2.34555-1.594-5.10806c-.02852-3.90844.25178-4.70952,1.43513-4.70952S39.82731,19.8708,39.91586,23.056Z"/><path class="cls-5" d="M37.153,32.70562c.05154,1.85361.26566,5.04781-1.25583,5.137s-1.5738-2.34555-1.594-5.10806c-.02852-3.90843.25174-4.70953,1.43514-4.70953S37.06442,29.52044,37.153,32.70562Z"/><path class="cls-5" d="M37.43,42.32885c.05154,1.72324.26566,4.6928-1.25584,4.77577s-1.5738-2.18058-1.59395-4.74881c-.02853-3.63357.25174-4.37833,1.43513-4.37833S37.34141,39.36769,37.43,42.32885Z"/><path class="cls-5" d="M40.49386,51.75527c.05153,1.72326.26565,4.69281-1.25585,4.77577s-1.5738-2.18057-1.59395-4.74881c-.02852-3.63357.25174-4.37832,1.43513-4.37832S40.4053,48.79411,40.49386,51.75527Z"/><path class="cls-5" d="M40.3651,42.1377c.05153,1.85362.26566,5.04784-1.25584,5.13707s-1.5738-2.34555-1.594-5.10806c-.02852-3.90844.25179-4.70952,1.43513-4.70952S40.27654,38.95256,40.3651,42.1377Z"/><path class="cls-5" d="M37.6022,51.78735c.0515,1.85362.26565,5.04784-1.25584,5.13707s-1.5738-2.34556-1.594-5.10807c-.02851-3.90843.25175-4.70952,1.43514-4.70952S37.51365,48.60216,37.6022,51.78735Z"/><path class="cls-5" d="M38.85161,61.15234c.0515,1.72325.26565,4.69281-1.25584,4.77577s-1.5738-2.18057-1.594-4.74881c-.02851-3.63357.25175-4.37832,1.43514-4.37832S38.76306,58.19118,38.85161,61.15234Z"/><path class="cls-5" d="M39.33567,70.46331c-.15657,1.71653-.302,4.69047-1.82179,4.579s-1.29885-2.3642-1.00929-4.91522c.40965-3.6092.77751-4.31253,1.95178-4.16182S39.60467,67.51369,39.33567,70.46331Z"/><path class="cls-5" d="M35.64391,80.17223c-.15652,1.71654-.302,4.69049-1.82177,4.579s-1.29885-2.36416-1.00931-4.91523c.40965-3.6092.77752-4.31253,1.9518-4.16182S35.913,77.22261,35.64391,80.17223Z"/><path class="cls-5" d="M40.49386,61.13619c.05153,1.8536.26565,5.04786-1.25585,5.13707s-1.5738-2.34555-1.59395-5.10806c-.02852-3.90844.25174-4.70954,1.43513-4.70954S40.4053,57.951,40.49386,61.13619Z"/><path class="cls-5" d="M36.44643,70.51327c-.06467,1.85316-.051,5.05491-1.57491,5.04331s-1.42368-2.44478-1.27084-5.20291c.21625-3.90221.54609-4.68309,1.727-4.60482S36.55743,67.32886,36.44643,70.51327Z"/><path class="cls-5" d="M38.62917,79.815c-.06463,1.85313-.05094,5.05488-1.57487,5.04328s-1.42368-2.44479-1.27082-5.2029c.21633-3.90225.54613-4.68311,1.72706-4.60482S38.74028,76.63054,38.62917,79.815Z"/><ellipse class="cls-6" cx="38.50998" cy="11.68889" rx="0.95396" ry="1.44821"/><ellipse class="cls-4" cx="38.93476" cy="11.02745" rx="0.16007" ry="0.2413" transform="translate(-1.40457 14.2303) rotate(-20.35329)"/><ellipse class="cls-6" cx="38.50998" cy="24.23302" rx="0.95396" ry="1.44821"/><ellipse class="cls-4" cx="38.93476" cy="23.57157" rx="0.16007" ry="0.2413" transform="translate(-5.76752 15.01349) rotate(-20.35329)"/><ellipse class="cls-6" cx="38.63873" cy="33.98152" rx="0.95396" ry="1.44821"/><ellipse class="cls-4" cx="39.06352" cy="33.32007" rx="0.16007" ry="0.2413" transform="translate(-9.15008 15.66691) rotate(-20.35329)"/><ellipse class="cls-6" cx="38.95921" cy="41.2421" rx="0.95396" ry="1.44821"/><ellipse class="cls-4" cx="39.384" cy="40.58064" rx="0.16007" ry="0.2413" transform="translate(-11.65536 16.23168) rotate(-20.35329)"/><ellipse class="cls-6" cx="39.06352" cy="51.75941" rx="0.95396" ry="1.44821"/><ellipse class="cls-4" cx="39.4883" cy="51.09797" rx="0.16007" ry="0.2413" transform="matrix(0.93757, -0.34781, 0.34781, 0.93757, -15.30685, 16.9246)"/><ellipse class="cls-6" cx="38.95921" cy="59.68463" rx="0.95396" ry="1.44821"/><ellipse class="cls-4" cx="39.384" cy="59.02317" rx="0.16007" ry="0.2413" transform="translate(-18.06982 17.38313) rotate(-20.35329)"/><ellipse class="cls-6" cx="38.10957" cy="68.92021" rx="0.95396" ry="1.44821"/><ellipse class="cls-4" cx="38.53435" cy="68.25874" rx="0.16007" ry="0.2413" transform="translate(-21.33507 17.66423) rotate(-20.35329)"/><ellipse class="cls-6" cx="37.19291" cy="79.95185" rx="0.95396" ry="1.44821"/><ellipse class="cls-4" cx="37.61769" cy="79.29038" rx="0.16007" ry="0.2413" transform="translate(-25.22919 18.03416) rotate(-20.35329)"/><ellipse class="cls-6" cx="35.71637" cy="32.44864" rx="0.95396" ry="1.44821"/><ellipse class="cls-4" cx="36.14116" cy="31.7872" rx="0.16007" ry="0.2413" transform="translate(-8.79933 14.55463) rotate(-20.35309)"/><ellipse class="cls-6" cx="35.99963" cy="43.67735" rx="0.95396" ry="1.44821"/><ellipse class="cls-4" cx="36.42441" cy="43.0159" rx="0.16007" ry="0.2413" transform="translate(-12.68714 15.35436) rotate(-20.35329)"/><ellipse class="cls-6" cx="35.99963" cy="53.20762" rx="0.95396" ry="1.44821"/><ellipse class="cls-4" cx="36.42442" cy="52.54616" rx="0.16007" ry="0.2413" transform="translate(-16.00184 15.94937) rotate(-20.35329)"/><ellipse class="cls-6" cx="36.02407" cy="62.01034" rx="0.95396" ry="1.44821"/><ellipse class="cls-4" cx="36.44886" cy="61.34888" rx="0.16007" ry="0.2413" transform="translate(-19.06197 16.50747) rotate(-20.35329)"/><ellipse class="cls-6" cx="34.76241" cy="72.88007" rx="0.95396" ry="1.44821"/><ellipse class="cls-4" cx="35.1872" cy="72.21862" rx="0.16007" ry="0.2413" transform="translate(-22.92132 16.74729) rotate(-20.35329)"/><ellipse class="cls-6" cx="33.80846" cy="81.83467" rx="0.95396" ry="1.44821"/><ellipse class="cls-4" cx="34.23325" cy="81.17321" rx="0.16007" ry="0.2413" transform="translate(-26.09535 16.97457) rotate(-20.35329)"/><ellipse class="cls-6" cx="35.57484" cy="22.72337" rx="0.95396" ry="1.44821"/><ellipse class="cls-4" cx="35.99963" cy="22.06191" rx="0.16007" ry="0.2413" transform="translate(-5.4257 13.89837) rotate(-20.35329)"/><path class="cls-5" d="M39.94661,4.45136c.05149,1.72326.26566,4.69281-1.25588,4.77577s-1.5738-2.18057-1.59395-4.74881C37.06826.84475,37.34856.1,38.5319.1S39.858,1.49021,39.94661,4.45136Z"/><ellipse class="cls-6" cx="38.50998" cy="4.66467" rx="0.95396" ry="1.44821"/><ellipse class="cls-4" cx="38.93477" cy="4.00322" rx="0.16007" ry="0.2413" transform="translate(1.03851 13.79177) rotate(-20.35332)"/><path class="cls-5" d="M5.46483,5.29236c.05154,1.72326.26566,4.69281-1.25584,4.77577S2.6352,7.88756,2.615,5.31932C2.58653,1.68575,2.86683.941,4.05018.941S5.37629,2.3312,5.46483,5.29236Z"/><ellipse class="cls-6" cx="4.02824" cy="5.50567" rx="0.95396" ry="1.44821"/><ellipse class="cls-4" cx="4.45304" cy="4.84422" rx="0.16007" ry="0.24129" transform="translate(-1.40684 1.85125) rotate(-20.35329)"/><path class="cls-5" d="M4.92949,14.27977c.05153,1.72325.26567,4.6928-1.25584,4.77577S2.09984,16.875,2.0797,14.30673c-.02853-3.63357.25178-4.37832,1.43512-4.37832S4.84093,11.31861,4.92949,14.27977Z"/><ellipse class="cls-6" cx="3.4929" cy="14.49307" rx="0.95396" ry="1.44821"/><ellipse class="cls-4" cx="3.91768" cy="13.83162" rx="0.16007" ry="0.24129" transform="translate(-4.56615 2.22616) rotate(-20.35329)"/><path class="cls-5" d="M7.73905,13.73059c.05155,1.72325.26566,4.69281-1.25583,4.77577s-1.5738-2.18057-1.594-4.74881C4.86075,10.124,5.14105,9.37923,6.3244,9.37923S7.65051,10.7694,7.73905,13.73059Z"/><path class="cls-5" d="M4.92949,23.45229c.05153,1.72326.26567,4.6928-1.25584,4.77577S2.09984,26.04749,2.0797,23.47925c-.02853-3.63356.25178-4.37832,1.43512-4.37832S4.84093,20.49114,4.92949,23.45229Z"/><path class="cls-5" d="M7.9934,32.72174c.05154,1.72325.26566,4.69281-1.25584,4.77577s-1.57379-2.18057-1.594-4.74881c-.02853-3.63357.25179-4.37832,1.43513-4.37832S7.90483,29.76058,7.9934,32.72174Z"/><path class="cls-5" d="M7.61031,23.14789c.05153,1.85361.26564,5.04782-1.25585,5.137s-1.5738-2.34555-1.594-5.10806c-.02852-3.90844.25173-4.70952,1.43513-4.70952S7.52175,19.96271,7.61031,23.14789Z"/><path class="cls-5" d="M5.10173,33.04939c.05153,1.85362.26567,5.04782-1.25584,5.137s-1.5738-2.34555-1.59395-5.10806c-.02853-3.90843.25178-4.70953,1.43512-4.70953S5.01317,29.86423,5.10173,33.04939Z"/><path class="cls-5" d="M4.71864,42.56931c.05154,1.72326.26566,4.6928-1.25584,4.77578s-1.57379-2.18057-1.594-4.74882C1.84034,38.96271,2.12064,38.218,3.304,38.218S4.63009,39.60816,4.71864,42.56931Z"/><path class="cls-5" d="M6.99679,51.75527c.05153,1.72326.26565,4.69281-1.25585,4.77577s-1.57379-2.18057-1.594-4.74881c-.02851-3.63357.25179-4.37832,1.43513-4.37832S6.90823,48.79411,6.99679,51.75527Z"/><path class="cls-5" d="M7.32689,42.13772c.05154,1.85362.26566,5.04782-1.25584,5.137s-1.5738-2.34555-1.594-5.10806c-.02851-3.90844.2518-4.70952,1.43514-4.70952S7.23834,38.95256,7.32689,42.13772Z"/><path class="cls-5" d="M4.43524,51.97345c.05153,1.85361.26567,5.04782-1.25584,5.137s-1.5738-2.34554-1.594-5.10806c-.02852-3.90844.25178-4.70952,1.43513-4.70952S4.34664,48.78827,4.43524,51.97345Z"/><path class="cls-5" d="M3.57381,61.39352c.05154,1.72326.26566,4.69281-1.25584,4.77578S.74417,63.98873.724,61.42049c-.02852-3.63357.25179-4.37832,1.43513-4.37832S3.4853,58.43237,3.57381,61.39352Z"/><path class="cls-5" d="M5.91879,70.79232c-.15657,1.71654-.302,4.69049-1.8218,4.579S2.79815,73.00716,3.0877,70.45615c.40966-3.60921.77752-4.31253,1.9518-4.16182S6.1878,67.84271,5.91879,70.79232Z"/><path class="cls-5" d="M3.743,80.17223c-.15658,1.71654-.302,4.69049-1.8218,4.579S.62236,82.38707.91192,79.83605c.40965-3.6092.77753-4.31253,1.95179-4.16182S4.012,77.22261,3.743,80.17223Z"/><path class="cls-5" d="M6.46547,61.13622c.05153,1.8536.26565,5.04783-1.25585,5.137S3.63583,63.92771,3.61567,61.1652c-.02851-3.90844.25174-4.70954,1.43513-4.70954S6.37692,57.951,6.46547,61.13622Z"/><path class="cls-5" d="M3.02723,70.92581c-.06463,1.85313-.05094,5.05488-1.57487,5.04327S.02867,73.5243.18152,70.76617c.21626-3.90221.54609-4.68309,1.727-4.60481S3.13828,67.74135,3.02723,70.92581Z"/><path class="cls-5" d="M6.67232,79.815c-.06463,1.85313-.05094,5.05488-1.57487,5.04328s-1.42368-2.44479-1.27082-5.2029c.21625-3.90222.54608-4.68311,1.727-4.60482S6.78338,76.63054,6.67232,79.815Z"/><ellipse class="cls-6" cx="6.20442" cy="11.96063" rx="0.95396" ry="1.44821"/><ellipse class="cls-4" cx="6.6292" cy="11.29917" rx="0.16007" ry="0.24129" transform="translate(-3.51605 3.01114) rotate(-20.35329)"/><path class="cls-5" d="M8.43616,4.80589c.05154,1.72326.26566,4.6928-1.25584,4.77578S5.60653,7.4011,5.58637,4.83285C5.55786,1.19928,5.83816.45453,7.0215.45453S8.34762,1.84474,8.43616,4.80589Z"/><ellipse class="cls-6" cx="6.99957" cy="5.01921" rx="0.95396" ry="1.44821"/><ellipse class="cls-4" cx="7.42435" cy="4.35775" rx="0.16007" ry="0.24129" transform="translate(-1.05213 2.85432) rotate(-20.35329)"/><ellipse class="cls-6" cx="6.20442" cy="21.93928" rx="0.95396" ry="1.44821"/><ellipse class="cls-4" cx="6.62921" cy="21.27782" rx="0.16007" ry="0.24129" transform="translate(-6.9867 3.63415) rotate(-20.35329)"/><ellipse class="cls-6" cx="3.4929" cy="25.18412" rx="0.95396" ry="1.44821"/><ellipse class="cls-4" cx="3.91769" cy="24.52267" rx="0.16007" ry="0.24129" transform="translate(-8.28458 2.89365) rotate(-20.35329)"/><ellipse class="cls-6" cx="3.52361" cy="31.70845" rx="0.95396" ry="1.44821"/><ellipse class="cls-4" cx="3.94839" cy="31.047" rx="0.16007" ry="0.24129" transform="translate(-10.55188 3.31167) rotate(-20.35329)"/><ellipse class="cls-6" cx="6.62921" cy="34.16002" rx="0.95396" ry="1.44821"/><ellipse class="cls-4" cx="7.05399" cy="33.49857" rx="0.16007" ry="0.24129" transform="translate(-11.21066 4.54489) rotate(-20.35329)"/><ellipse class="cls-6" cx="6.04562" cy="41.79397" rx="0.95396" ry="1.44821"/><ellipse class="cls-4" cx="6.47041" cy="41.13251" rx="0.16007" ry="0.24129" transform="translate(-13.90223 4.81853) rotate(-20.35329)"/><ellipse class="cls-6" cx="3.19111" cy="41.2421" rx="0.95396" ry="1.44821"/><ellipse class="cls-4" cx="3.616" cy="40.58064" rx="0.16007" ry="0.24129" transform="translate(-13.88848 3.79128) rotate(-20.35325)"/><ellipse class="cls-6" cx="3.02935" cy="50.34817" rx="0.95396" ry="1.44821"/><ellipse class="cls-4" cx="3.45414" cy="49.68672" rx="0.16007" ry="0.24129" transform="translate(-17.06578 4.30353) rotate(-20.35329)"/><ellipse class="cls-6" cx="5.71311" cy="53.17255" rx="0.95396" ry="1.44821"/><ellipse class="cls-4" cx="6.13789" cy="52.51109" rx="0.16007" ry="0.24129" transform="translate(-17.88056 5.41329) rotate(-20.35329)"/><ellipse class="cls-6" cx="5.05958" cy="60.28101" rx="0.95396" ry="1.44821"/><ellipse class="cls-4" cx="5.48437" cy="59.61954" rx="0.16007" ry="0.24129" transform="translate(-20.39373 5.6298) rotate(-20.35329)"/><ellipse class="cls-6" cx="2.16792" cy="62.96865" rx="0.95396" ry="1.44821"/><ellipse class="cls-4" cx="2.59272" cy="62.30718" rx="0.16007" ry="0.24129" transform="translate(-21.50905 4.79186) rotate(-20.35329)"/><ellipse class="cls-6" cx="1.58352" cy="69.94625" rx="0.95396" ry="1.44821"/><ellipse class="cls-4" cx="2.00832" cy="69.28478" rx="0.16007" ry="0.24129" transform="translate(-23.9724 5.02424) rotate(-20.35329)"/><ellipse class="cls-6" cx="4.47517" cy="71.84556" rx="0.95396" ry="1.44821"/><ellipse class="cls-4" cx="4.89996" cy="71.18409" rx="0.16007" ry="0.24129" transform="translate(-24.45246 6.14856) rotate(-20.35329)"/><ellipse class="cls-6" cx="5.3439" cy="79.0076" rx="0.95396" ry="1.44821"/><ellipse class="cls-4" cx="5.76869" cy="78.34614" rx="0.16007" ry="0.24129" transform="translate(-26.88924 6.89787) rotate(-20.35329)"/><ellipse class="cls-6" cx="2.07539" cy="81.83467" rx="0.95396" ry="1.44821"/><ellipse class="cls-4" cx="2.50018" cy="81.1732" rx="0.16007" ry="0.24129" transform="matrix(0.93757, -0.34781, 0.34781, 0.93757, -28.07658, 5.93756)"/><path class="cls-2" d="M29.80973,40.96574c-1.03671-.48682-.24484-1.9337.14638-3.11584s.51655-2.2833,1.8917-1.79605c1.44572.51226.79135,1.77182.04007,3.445C31.05221,41.35986,30.84644,41.45256,29.80973,40.96574Z"/><path class="cls-2" d="M31.58122,36.8696c-1.269-.1329-.84835-1.767-.78153-3.02022s-.12971-2.34416,1.50572-2.31913c1.71937.0263,1.39109,1.43764,1.08265,3.27466C33.04494,36.84825,32.85019,37.0025,31.58122,36.8696Z"/><path class="cls-2" d="M30.03991,27.75026c.17466-.76693,2.33651-1.73808,3.20192,1.39822s-1.86759,2.8109-2.23744,2.63872C30.48324,31.54456,29.75447,29.00361,30.03991,27.75026Z"/><path class="cls-2" d="M27.05644,24.71671c-.87628-1.14515,1.86081-2.60261,3.69627-.17195s-.02441,3.22835-.83657,2.96887C29.03129,27.23093,27.46246,25.24731,27.05644,24.71671Z"/><path class="cls-2" d="M23.27932,23.23826c-1.08028-.47585-.70568-2.78212,1.9831-2.04166,3.7467,1.0318,2.29183,2.72065,1.6255,3.1389C26.32371,24.68963,24.08152,23.59161,23.27932,23.23826Z"/><path class="cls-2" d="M18.61921,23.11267c-.42842-.257-.794-2.32009,2.10412-2.56155s2.65819,2.28712,2.2067,2.531A12.09338,12.09338,0,0,1,18.61921,23.11267Z"/><path class="cls-2" d="M16.68489,24.233c-1.87972.976-2.242,1.02-2.85384.07029-.57784-.897,0-1.67408,1.69055-2.495,1.058-.51378,2.567-.47336,2.80952.48161C18.61286,23.39927,18.56461,23.257,16.68489,24.233Z"/><path class="cls-2" d="M13.47683,26.76614c-.94993,1.25556-1.70594,1.851-2.38226,1.27165s-.77345-1.36824.257-2.85367,1.955-1.35278,2.47949-.88081C14.95808,25.31737,14.42676,25.51058,13.47683,26.76614Z"/><path class="cls-2" d="M12.02778,29.10019c-.1449.70826-.7889,2.88134-1.38688,3.24378s-2.05862.58728-1.72052-1.65019,1.26809-3.027,2.17419-2.656C11.6924,28.28261,12.17268,28.39193,12.02778,29.10019Z"/><path class="cls-2" d="M10.788,34.45774c-.0644,2.1704-.46694,2.61036-1.33634,2.51381s-1.25582-.177-1.288-1.9316S8.863,32.132,9.87031,32.223C10.68628,32.29667,10.85241,32.28735,10.788,34.45774Z"/><path class="cls-2" d="M11.36766,38.9354c.51522,1.27166.62792,1.89947-.44382,2.43063s-1.85378-.00848-2.30937-1.72237c-.58114-2.18647-.12058-2.7731.72452-2.97792C10.93294,36.27941,10.85244,37.66375,11.36766,38.9354Z"/><path class="cls-2" d="M13.15483,42.36715c1.19818,1.31788,1.16,1.60576.67622,2.49191s-1.41686.85312-2.73648-.41852-1.28583-2.78968-.51583-3.308C11.74746,40.34576,11.95664,41.04926,13.15483,42.36715Z"/><path class="cls-2" d="M14.22285,47.18367c-.96065.092-.40789-2.99029,0-3.28267s4.20785,1.24839,4.11491,1.90406C18.27191,46.26951,15.1835,47.09166,14.22285,47.18367Z"/><path class="cls-2" d="M25.56,44.34454c.95246-.15535.60491,2.95677.21723,3.27548s-4.28129-.96734-4.23192-1.62772C21.5803,45.52451,24.60758,44.49988,25.56,44.34454Z"/><path class="cls-2" d="M11.46429,50.828c-.59575.52808-2.78542-2.13785-1.17537-3.21634s3.57864-.82173,3.85816-.39216C14.447,47.68046,12.06,50.29989,11.46429,50.828Z"/><path class="cls-2" d="M11.39988,52.77875c-.1449.998-.30589,2.41454-1.14314,2.30186S8.55,54.90354,8.75937,52.71311c.11188-1.17074.57906-2.51122,1.85157-2.36494C12.01168,50.50921,11.54478,51.78076,11.39988,52.77875Z"/><path class="cls-2" d="M11.39986,57.23764c.22542,2.22137.30215,3.27548-1.00942,3.23391s-1.80816-.62622-2.00137-3.051.43164-2.41976,1.44288-2.40471C10.88842,55.03155,11.17445,55.01626,11.39986,57.23764Z"/><path class="cls-2" d="M13.62173,64.41684a1.8011,1.8011,0,0,1-2.94639,0c-.69081-.82518-1.62616-3.58964-.15985-3.94584s1.32809.301,2.44612,1.53934C13.78275,62.91981,14.4246,63.473,13.62173,64.41684Z"/><path class="cls-2" d="M17.22607,67.0203a1.801,1.801,0,0,1-2.85312.73534c-.875-.62664-2.471-3.07007-1.14-3.781s1.3612-.04,2.753.88009C17.0082,65.53051,17.76786,65.906,17.22607,67.0203Z"/><path class="cls-2" d="M21.43506,68.44379a1.80064,1.80064,0,0,1-2.30771,1.83144c-1.05422-.21693-3.50592-1.80075-2.579-2.99117s1.22735-.58976,2.87312-.31481C20.6302,67.17121,21.47694,67.20551,21.43506,68.44379Z"/><path class="cls-2" d="M25.64878,67.23251a1.80032,1.80032,0,0,1-.98333,2.77684c-1.00859.37565-3.9273.33458-3.77379-1.16623s.727-1.15121,2.26777-1.79162C24.291,66.58115,25.02681,66.16084,25.64878,67.23251Z"/><path class="cls-2" d="M29.38466,63.92538a1.845,1.845,0,0,1,.28055,3.0147c-.78326.78581-3.53855,2.00743-4.04465.5412s.18324-1.38768,1.35091-2.65015C27.82906,63.90392,28.33711,63.19423,29.38466,63.92538Z"/><path class="cls-2" d="M31.376,59.83417a1.84532,1.84532,0,0,1,1.55776,2.59645c-.366,1.04728-2.32117,3.34055-3.4121,2.23773s-.43547-1.33029.07078-2.97361C29.96426,60.48781,30.11513,59.6282,31.376,59.83417Z"/><path class="cls-2" d="M31.71823,55.60387a1.84558,1.84558,0,0,1,2.24,2.03759c-.04866,1.10829-1.26,3.86759-2.62248,3.12576s-.80035-1.14844-.78918-2.8679C30.55478,56.63651,30.4515,55.76988,31.71823,55.60387Z"/><path class="cls-2" d="M30.2692,51.53273a1.84579,1.84579,0,0,1,2.84951,1.02521c.37934,1.04251.31666,4.05525-1.22607,3.89129s-1.17907-.75471-1.82707-2.34749C29.58962,52.93194,29.16247,52.17085,30.2692,51.53273Z"/><path class="cls-2" d="M26.53676,46.94423a3.74839,3.74839,0,0,1,4.66049.76817c.94569,1.07156,1.93273,4.30194-.45009,4.30443s-2.04709-.67145-3.595-2.30074C26.0154,48.51948,25.09867,47.75451,26.53676,46.94423Z"/><path class="cls-2" d="M29.74643,43.8645c-1.15925,1.38089-3.526,2.9262-3.81583,1.42919s.41056-1.5453,1.4249-2.487,1.42491-2.28515,2.45423-1.841C31.4187,41.66,30.51957,42.94352,29.74643,43.8645Z"/><path class="cls-2" d="M28.04539,44.985a6.28016,6.28016,0,0,0,1.93034-1.40221c.726-.82592,1.90448,4.52929,1.11448,3.989-1.03849-.71023-1.87592-1.44852-3.25251-1.038s-1.89575.97359-1.74533.14053C26.28605,45.60173,26.40282,46.02394,28.04539,44.985Z"/><path class="cls-2" d="M13.89016,47.03113c-.134.2646-2.23437-.02937-3.08965.31617s-.8578-3.91282,0-3.22109,2.81313.13643,3.09163.51255A5.30452,5.30452,0,0,1,13.89016,47.03113Z"/><path class="cls-2" d="M29.571,41.00527c.61013.923.04464,2.01063,1.27683,3.70893.35349.48724,2.30385-.31389,2.56242-1.72289s-1.12239-4.497-1.4052-3.75242C31.35246,40.957,29.10794,40.3048,29.571,41.00527Z"/><path class="cls-2" d="M31.002,44.81894c-.02432.51522.19339,2.23734.19517,2.8934a.94668.94668,0,0,0,.63845,1.06693c.49537.27426,1.58169-.41912,2.12543-1.10932s-.24444-3.5434-1.18043-3.5678C32.45792,44.09374,31.02637,44.30372,31.002,44.81894Z"/><path class="cls-2" d="M10.92384,44.26549c-.51627.37227.17818,2.74251-.38339,3.0274s-2.38484-2.57873-2.28824-3.42841,1.85271-3.113,1.906-2.30237C10.22865,42.63546,11.44012,43.89322,10.92384,44.26549Z"/><ellipse class="cls-7" cx="9.97202" cy="38.84555" rx="0.65948" ry="0.75617"/><ellipse class="cls-4" cx="10.26569" cy="38.50017" rx="0.10302" ry="0.13534" transform="translate(-23.31883 17.05892) rotate(-42.51476)"/><ellipse class="cls-7" cx="9.6062" cy="44.46337" rx="0.65948" ry="0.75617"/><ellipse class="cls-4" cx="9.89986" cy="44.11799" rx="0.10302" ry="0.13534" transform="translate(-27.21142 18.2886) rotate(-42.51476)"/><ellipse class="cls-7" cx="11.99558" cy="43.13527" rx="0.65948" ry="0.75617"/><ellipse class="cls-4" cx="12.28923" cy="42.78991" rx="0.10302" ry="0.13534" transform="translate(-25.68577 19.55415) rotate(-42.51476)"/><ellipse class="cls-7" cx="15.21569" cy="45.59952" rx="0.65948" ry="0.75617"/><ellipse class="cls-4" cx="15.50935" cy="45.25414" rx="0.10302" ry="0.13534" transform="translate(-26.50449 22.37807) rotate(-42.51476)"/><ellipse class="cls-7" cx="12.28924" cy="45.78693" rx="0.65948" ry="0.75617"/><ellipse class="cls-4" cx="12.58291" cy="45.44155" rx="0.10302" ry="0.13534" transform="translate(-27.40049 20.44971) rotate(-42.51476)"/><ellipse class="cls-7" cx="11.28147" cy="48.87265" rx="0.65948" ry="0.75617"/><ellipse class="cls-4" cx="11.57513" cy="48.52727" rx="0.10302" ry="0.13534" transform="translate(-29.7507 20.5799) rotate(-42.51476)"/><ellipse class="cls-7" cx="9.97202" cy="52.36247" rx="0.65948" ry="0.75617"/><ellipse class="cls-4" cx="10.26569" cy="52.01708" rx="0.10302" ry="0.13534" transform="translate(-32.45329 20.61246) rotate(-42.51476)"/><ellipse class="cls-7" cx="9.97202" cy="57.04217" rx="0.65948" ry="0.75617"/><ellipse class="cls-4" cx="10.26569" cy="56.69678" rx="0.10302" ry="0.13534" transform="translate(-35.61574 21.84275) rotate(-42.51476)"/><ellipse class="cls-7" cx="12.19396" cy="63.27167" rx="0.65948" ry="0.75617"/><ellipse class="cls-4" cx="12.48762" cy="62.92629" rx="0.10302" ry="0.13534" transform="translate(-39.24138 24.982) rotate(-42.51476)"/><ellipse class="cls-7" cx="15.06455" cy="66.27561" rx="0.65948" ry="0.75617"/><ellipse class="cls-4" cx="15.35821" cy="65.93022" rx="0.10302" ry="0.13534" transform="translate(-40.51671 27.71161) rotate(-42.51475)"/><ellipse class="cls-7" cx="18.06549" cy="68.16745" rx="0.65948" ry="0.75617"/><ellipse class="cls-4" cx="18.35914" cy="67.82208" rx="0.10302" ry="0.13534" transform="translate(-41.00625 30.23694) rotate(-42.51475)"/><ellipse class="cls-7" cx="24.27132" cy="68.4138" rx="0.65948" ry="0.75617"/><ellipse class="cls-4" cx="24.56498" cy="68.06842" rx="0.10302" ry="0.13534" transform="translate(-39.54123 34.49548) rotate(-42.51475)"/><ellipse class="cls-7" cx="27.57901" cy="66.34335" rx="0.65948" ry="0.75617"/><ellipse class="cls-4" cx="27.87267" cy="65.99798" rx="0.10302" ry="0.13533" transform="translate(-37.27248 36.18645) rotate(-42.51475)"/><ellipse class="cls-7" cx="30.62219" cy="62.96861" rx="0.65948" ry="0.75617"/><ellipse class="cls-4" cx="30.91585" cy="62.62323" rx="0.10302" ry="0.13533" transform="translate(-34.19186 37.35575) rotate(-42.51476)"/><ellipse class="cls-7" cx="31.74922" cy="58.23642" rx="0.65948" ry="0.75617"/><ellipse class="cls-4" cx="32.04288" cy="57.89104" rx="0.10302" ry="0.13533" transform="translate(-30.69764 36.87331) rotate(-42.51476)"/><ellipse class="cls-7" cx="32.08155" cy="53.11863" rx="0.65948" ry="0.75617"/><ellipse class="cls-4" cx="32.3752" cy="52.77326" rx="0.10302" ry="0.13533" transform="translate(-27.15179 35.75243) rotate(-42.51476)"/><ellipse class="cls-7" cx="28.9295" cy="49.33585" rx="0.65948" ry="0.75617"/><ellipse class="cls-4" cx="29.22316" cy="48.99048" rx="0.10302" ry="0.13533" transform="translate(-25.42412 32.62786) rotate(-42.51476)"/><ellipse class="cls-7" cx="24.58817" cy="46.14596" rx="0.65948" ry="0.75617"/><ellipse class="cls-4" cx="24.88183" cy="45.80058" rx="0.10302" ry="0.13533" transform="translate(-24.40977 28.85546) rotate(-42.51476)"/><ellipse class="cls-7" cx="29.80939" cy="45.4679" rx="0.65948" ry="0.75617"/><ellipse class="cls-4" cx="30.10305" cy="45.12253" rx="0.10302" ry="0.13533" transform="translate(-22.57891 32.20561) rotate(-42.51476)"/><ellipse class="cls-7" cx="29.01385" cy="42.84468" rx="0.65948" ry="0.75617"/><ellipse class="cls-4" cx="29.30751" cy="42.4993" rx="0.10302" ry="0.13533" transform="translate(-21.01533 30.97836) rotate(-42.51476)"/><ellipse class="cls-7" cx="31.91028" cy="41.99105" rx="0.65948" ry="0.75617"/><ellipse class="cls-4" cx="32.20394" cy="41.64568" rx="0.10302" ry="0.13533" transform="translate(-19.67701 32.71129) rotate(-42.51476)"/><ellipse class="cls-7" cx="30.84783" cy="38.73365" rx="0.65948" ry="0.75617"/><ellipse class="cls-4" cx="31.14148" cy="38.38827" rx="0.10302" ry="0.13533" transform="translate(-17.75504 31.13694) rotate(-42.51476)"/><ellipse class="cls-7" cx="32.13494" cy="34.65302" rx="0.65948" ry="0.75617"/><ellipse class="cls-4" cx="32.4286" cy="34.30764" rx="0.10302" ry="0.13533" transform="translate(-14.65905 30.93397) rotate(-42.51476)"/><ellipse class="cls-7" cx="31.87734" cy="29.43514" rx="0.65948" ry="0.75617"/><ellipse class="cls-4" cx="32.171" cy="29.08976" rx="0.10302" ry="0.13533" transform="translate(-11.20063 29.38812) rotate(-42.51476)"/><ellipse class="cls-7" cx="29.97573" cy="25.82942" rx="0.65948" ry="0.75617"/><ellipse class="cls-4" cx="30.2694" cy="25.48405" rx="0.10302" ry="0.13533" transform="translate(-9.26389 27.15513) rotate(-42.51476)"/><ellipse class="cls-7" cx="25.59638" cy="22.78481" rx="0.65948" ry="0.75617"/><ellipse class="cls-4" cx="25.89004" cy="22.43945" rx="0.10302" ry="0.13533" transform="matrix(0.7371, -0.67578, 0.67578, 0.7371, -8.35773, 23.39523)"/><ellipse class="cls-7" cx="21.02966" cy="21.91332" rx="0.67738" ry="0.75617"/><ellipse class="cls-4" cx="21.33128" cy="21.56796" rx="0.10445" ry="0.13709" transform="translate(-9.00349 21.61206) rotate(-45.39941)"/><ellipse class="cls-7" cx="15.6343" cy="23.22543" rx="0.67738" ry="0.75617"/><ellipse class="cls-4" cx="15.93593" cy="22.88006" rx="0.10445" ry="0.13709" transform="translate(-11.54468 18.16127) rotate(-45.39941)"/><ellipse class="cls-7" cx="12.65571" cy="25.74712" rx="0.67738" ry="0.75617"/><ellipse class="cls-4" cx="12.95734" cy="25.40175" rx="0.10445" ry="0.13709" transform="translate(-14.22731 16.79152) rotate(-45.39941)"/><ellipse class="cls-7" cx="10.25672" cy="29.90503" rx="0.67738" ry="0.75617"/><ellipse class="cls-4" cx="10.55836" cy="29.55965" rx="0.10445" ry="0.13709" transform="translate(-17.90233 16.32178) rotate(-45.39941)"/><ellipse class="cls-7" cx="9.57935" cy="34.40006" rx="0.67738" ry="0.75617"/><ellipse class="cls-4" cx="9.88098" cy="34.05469" rx="0.10445" ry="0.13709" transform="translate(-21.30463 17.17827) rotate(-45.39941)"/><ellipse class="cls-7" cx="32.37521" cy="47.10683" rx="0.65948" ry="0.75617"/><ellipse class="cls-4" cx="32.66886" cy="46.76144" rx="0.10302" ry="0.13534" transform="translate(-23.01192 34.37039) rotate(-42.51476)"/><path class="cls-8" d="M12.9111,62.666a18.2283,18.2283,0,0,0,3.32964,2.9253,12.81405,12.81405,0,0,0,3.43045,2.01748c2.82509.9079,6.35647-.807,8.3744-2.9253,3.73319-3.8332,3.53138-10.39.60542-14.32412a10.26935,10.26935,0,0,0-3.53138-3.02622c-3.83406-2.01748-9.58519-2.11833-12.41028,1.10959-1.41258,1.71487-1.61439,3.73235-1.71526,5.85073C10.8932,55.80659,10.59052,59.63979,12.9111,62.666Zm1.21081-.50437c-2.72422-2.52186-2.52242-7.263-2.52246-7.76735.10087-1.71483.20181-3.73231,1.61432-5.34627,2.62335-3.02622,7.87-2.92539,11.40137-1.00874a8.75116,8.75116,0,0,1,3.22871,2.82446c2.62329,3.63144,3.12778,9.88564-.60541,13.11363-2.6233,2.32008-6.7601,2.7236-8.778,1.51311-.30268-.20176-1.31164-.9079-2.32061-1.614-.60536-.50437-1.51349-1.21054-2.01793-1.71487Z"/><path class="cls-8" d="M14.22282,43.90335a9.7183,9.7183,0,0,0,11.9058.40352c2.3206-1.71487,3.22872-4.33759,4.03588-6.85943a13.89423,13.89423,0,0,0,.70629-6.75859,8.084,8.084,0,0,0-1.41257-3.9341c-2.6233-3.7323-7.66812-3.83321-8.47535-3.83321A9.77017,9.77017,0,0,0,14.62639,24.939a11.17735,11.17735,0,0,0-3.73319,6.25426.44169.44169,0,0,0-.10087.3026C9.077,39.96937,14.22282,43.90335,14.22282,43.90335ZM11.59949,31.49588a10.65132,10.65132,0,0,1,3.53139-5.34627c1.009-.807,4.54035-3.32883,8.57621-2.11834a8.902,8.902,0,0,1,4.74215,4.035c1.91707,3.32882,1.009,6.8595.5045,9.07866S27.8439,41.58332,25.826,43.19735A9.40493,9.40493,0,0,1,14.92907,43.5C10.59052,40.57459,10.6914,34.7239,11.59949,31.49588Z"/></g></g></g></g></svg>
