<svg xmlns="http://www.w3.org/2000/svg" viewBox="0 0 76.88165 85.23937"><title>资源 782</title><g id="图层_2" data-name="图层 2"><g id="图层_1-2" data-name="图层 1">


<path d="M76.78133,23.85928a.45441.45441,0,0,1-.4424.44257l-.05647.0092a3.03422,3.03422,0,0,0-1.64711.59331A11.284,11.284,0,0,0,73.14822,26.222a40.57873,40.57873,0,0,1-2.98361,2.99275,7.80053,7.80053,0,0,1-4.07545,1.9486c-.38587.01884-.78116.028-1.17651.03768-.38587-.03768-.76237-.11305-1.14824-.15993-.71533-.1319-1.34592-.30148-2.033-.41454a16.081,16.081,0,0,0-7.80264.00965,6.97586,6.97586,0,0,0-3.04009,1.94814,7.62689,7.62689,0,0,0-.84711,1.12c-.96,1.35529.01885,2.63566-.09409,8.16066-.10352,5.53419-1.47771,7.01172-.02827,7.407.66828.19762,1.31772.45177,1.99536.59331a14.31318,14.31318,0,0,0,4.179.45177,8.75015,8.75015,0,0,0,2.033-.33917,5.43171,5.43171,0,0,0,1.75064-.86584l.07531-.05652a.52763.52763,0,0,1,.68706.80011,6.15929,6.15929,0,0,1-2.09887,1.27073,9.5152,9.5152,0,0,1-2.306.574h-.0659c.50824.273.99768.56482,1.47771.88468a12.44545,12.44545,0,0,1,2.75773,2.40955,8.14127,8.14127,0,0,1,1.713,3.26619.34874.34874,0,0,1-.66827.19762l-.00942-.00965a7.33373,7.33373,0,0,0-1.74122-2.82362,11.49781,11.49781,0,0,0-2.673-2.02351,21.01715,21.01715,0,0,0-5.75083-2.12691c-.5647-.09421-1.12-.2353-1.68474-.3672-1.36476-.31067-.90809,1.67488-2.08808,4.8064s-2.4956,3.5891-1.59207,5.43383A13.7527,13.7527,0,0,0,47.585,64.09592a38.6371,38.6371,0,0,0,4.80956,4.90365c.50829.45176,1.01652.932,1.51533,1.42147a7.8469,7.8469,0,0,0,1.83537.77162c.913.2638,1.91068.43292,2.9272.70591a7.91105,7.91105,0,0,1,2.9083,1.393A7.16754,7.16754,0,0,1,63.548,75.84217a.45067.45067,0,0,1-.80006.41454l-.00942-.00965a6.23026,6.23026,0,0,0-1.78826-2.11772,6.54516,6.54516,0,0,0-2.56954-1.05426c-.78116-.17878-1.6-.301-2.44712-.47061a15.02136,15.02136,0,0,1,1.3083,1.807,10.06653,10.06653,0,0,1,1.29887,3.52033A11.256,11.256,0,0,1,58.5313,81.659a.60367.60367,0,0,1-1.19536-.16958,9.14168,9.14168,0,0,0-1.37412-6.29663,23.37527,23.37527,0,0,0-4.74373-4.85632,40.46822,40.46822,0,0,1-5.2519-4.951A16.08037,16.08037,0,0,1,44.545,63.39966c-1.43065-1.98628-3.219,2.70138-7.93437,1.86358s-6.10849-5.94827-7.925-3.9721A13.92637,13.92637,0,0,1,26.342,63.4277a.00938.00938,0,0,0-.00942.00965,5.39028,5.39028,0,0,0-1.69417,1.81623,5.10564,5.10564,0,0,0-.55528,2.84247,13.803,13.803,0,0,0,1.233,4.25428,9.4193,9.4193,0,0,0,1.6377,1.86357,10.0176,10.0176,0,0,0,2.61652,1.5529,14.8459,14.8459,0,0,1,2.92715,1.54371,13.26537,13.26537,0,0,1,2.43775,2.25881.37581.37581,0,0,1-.03763.53678.3699.3699,0,0,1-.51771-.02849h-.00936a12.96072,12.96072,0,0,0-2.38129-2.00467,15.58351,15.58351,0,0,0-2.833-1.3084,13.03281,13.03281,0,0,1-2.26829-1.07265c.46119.9504.90353,1.92929,1.28,2.94587a10.03185,10.03185,0,0,1,.6777,6.05213.59587.59587,0,0,1-1.15772-.28264,8.92374,8.92374,0,0,0-.79058-5.28c-.70591-1.73168-1.65654-3.40729-2.53186-5.1578a16.95867,16.95867,0,0,1-1.97657-5.73227,7.11538,7.11538,0,0,1,.16941-2.55064c-.79058.43292-1.5718.85665-2.28712,1.3369a13.775,13.775,0,0,0-4.44248,4.781,14.89068,14.89068,0,0,0-1.75063,6.372V78.186a.67848.67848,0,0,1-1.35534-.04688,16.553,16.553,0,0,1,1.69416-7.08755,15.41307,15.41307,0,0,1,4.80014-5.553c2.00478-1.42147,4.15076-2.40036,5.85434-3.75564a10.71385,10.71385,0,0,0,2.47538-2.66323c1.1953-1.779-.93184-3.51115-2.146-9.44977-1.20472-5.94872-.11294-7.77461-1.34592-10.66395a9.0323,9.0323,0,0,0-3.79309-3.69912,16.0759,16.0759,0,0,0-6.38136-1.21419c-.62118-.028-1.25183-.04688-1.89184-.06572a4.25168,4.25168,0,0,0-2.66363.819,14.56317,14.56317,0,0,0-2.53186,2.56948,5.3223,5.3223,0,0,1-.67764.7059,5.29874,5.29874,0,0,0-.41413,1.421c-.11294.67787-.2353,1.38378-.42356,2.08a7.05137,7.05137,0,0,1-.86589,2.01431A6.03176,6.03176,0,0,1,2.8871,45.19685a.33362.33362,0,0,1-.47061-.07537.32658.32658,0,0,1,.05647-.45176l.00942-.00965a5.19321,5.19321,0,0,0,1.25177-1.46834,6.4286,6.4286,0,0,0,.66828-1.82589c.1412-.64938.21646-1.32725.30119-2.0235.00942-.08457.02821-.18843.03763-.28264a9.88656,9.88656,0,0,1-1.20472.631A5.93832,5.93832,0,0,0,.76,41.8461a.37175.37175,0,0,1-.49887.1034.3604.3604,0,0,1-.11294-.48025A5.70413,5.70413,0,0,1,1.42824,39.8975a9.64655,9.64655,0,0,1,1.63769-1.11033,7.60884,7.60884,0,0,0,2.69184-2.24042A17.58628,17.58628,0,0,1,8.20489,33.6574c-.48-.07537-.96-.15993-1.44-.28217a8.71981,8.71981,0,0,1-3.38833-1.69445,8.47236,8.47236,0,0,1-2.16482-3.05893.55829.55829,0,0,1,.28241-.74359.56391.56391,0,0,1,.72469.24495v.00919a7.42108,7.42108,0,0,0,2.0424,2.44724,7.37776,7.37776,0,0,0,2.88015,1.233,35.61287,35.61287,0,0,0,6.77665.2445,17.86275,17.86275,0,0,1,7.26616,1.205A10.27706,10.27706,0,0,1,24.309,35.42676c1.82595,1.61908,1.42124-2.16459,2.68242-6.99287,1.26125-4.8191,2.513-6.78654,2.15535-8.49937a7.06518,7.06518,0,0,0-.24467-.75278A3.8157,3.8157,0,0,0,27.302,16.83791a10.485,10.485,0,0,0-3.20013-1.0823,15.79244,15.79244,0,0,1-3.72715-1.21419,7.61329,7.61329,0,0,1-3.01187-2.73906.67358.67358,0,0,1,1.11061-.762l.01885.0092a6.17,6.17,0,0,0,2.56948,2.04234,9.18181,9.18181,0,0,0,1.65653.51794,6.37835,6.37835,0,0,1-.68712-1.478,7.399,7.399,0,0,1-.30114-1.33644c0-.00919-.00942-.01884-.01884-.028-.00942-.0285-.00942-.05653-.01884-.07537v-.01885a3.755,3.755,0,0,0-1.16709-2.26845c-.33882-.28218-.76238-.52714-1.20477-.83781A4.50244,4.50244,0,0,1,18.144,6.39041a.42943.42943,0,0,1,.113-.59285.439.439,0,0,1,.58354.08456,3.45986,3.45986,0,0,0,1.02588.84746c.3953.2353.87532.45176,1.34592.77162a4.10447,4.10447,0,0,1,.61181.53633,9.18207,9.18207,0,0,1,.39529-1.4302.53925.53925,0,0,1,1.02595.32906l-.00943.02849a7.65382,7.65382,0,0,0-.17883,3.36v.00965a1.11611,1.11611,0,0,1,.02821.188,4.90076,4.90076,0,0,0,.33888,1.11079,4.46975,4.46975,0,0,0,1.2706,1.78821,4.72951,4.72951,0,0,0,1.38361.80931,8.63876,8.63876,0,0,1,2.27771.79092,7.93885,7.93885,0,0,1,.9412.64938,7.36426,7.36426,0,0,1,.8.82816,8.88458,8.88458,0,0,1,.62123.96924l.13172.19807c1.52481,2.25881,6.77671,1.49638,7.57677-3.21931.01879-.10341.047-.21646.06589-.31987a10.37986,10.37986,0,0,1,1.77884-4.14122A7.32653,7.32653,0,0,1,43.199,7.73651a4.39461,4.39461,0,0,0,1.28-1.40217,22.314,22.314,0,0,0,1.03531-2.353A7.24728,7.24728,0,0,1,47.058,1.46791,5.26791,5.26791,0,0,1,49.731.11263a.56182.56182,0,0,1,.6588.43292.56526.56526,0,0,1-.3953.64984h-.01884a4.14241,4.14241,0,0,0-1.97651,1.16686,6.04919,6.04919,0,0,0-1.08241,2.12736,21.84892,21.84892,0,0,1-.8659,2.43759c1.02594-.19762,2.0142-.32952,2.92714-.546a3.81711,3.81711,0,0,0,2.95541-2.09887.72543.72543,0,0,1,1.35534.51748l-.00942.01884a4.72139,4.72139,0,0,1-1.5718,2.11772,7.07469,7.07469,0,0,1-2.28713,1.06345c-1.54359.44257-3.0213.64019-4.32959,1.08276a5.9097,5.9097,0,0,0-3.11539,2.1554c-.66823.97889-.98826,1.67515-1.27061,4.019-.41414,4.32918.92236,5.38345,3.71778,10.02377,2.79536,4.63986,3.71778,7.06825,5.12959,5.58107a9.26457,9.26457,0,0,1,3.66126-2.08923A11.15262,11.15262,0,0,0,54.55,27.61492a14.88373,14.88373,0,0,0,2.07062-2.871,20.0338,20.0338,0,0,1,2.01419-3.16232,4.58829,4.58829,0,0,1,1.553-1.18571,6.83611,6.83611,0,0,1,.93179-.32032l.96005-.11259a.263.263,0,0,1,.29177.22565.25792.25792,0,0,1-.22594.29183h-.01878l-.00943.00965a3.97044,3.97044,0,0,0-2.91772,1.57174,19.63417,19.63417,0,0,0-1.73184,3.14349,15.8292,15.8292,0,0,1-2.0142,3.15314,21.22925,21.22925,0,0,1,6.62614.65856c.13172.0285.27293.06618.40471.10387a3.1643,3.1643,0,0,0,2.4377-.86584,9.3916,9.3916,0,0,0,1.77889-3.7368,21.47628,21.47628,0,0,1,1.5718-4.22624,6.37935,6.37935,0,0,1,1.46828-1.82589,5.29782,5.29782,0,0,1,2.07067-1.06345.26093.26093,0,0,1,.32.18842.26376.26376,0,0,1-.17883.31987,4.97838,4.97838,0,0,0-3.0213,2.72941,20.85571,20.85571,0,0,0-1.30829,4.14122A10.26842,10.26842,0,0,1,65.788,29.05477a3.87416,3.87416,0,0,1-.76238.64019l.91295.00919a6.47939,6.47939,0,0,0,3.41658-1.47753c1.04473-.819,1.99536-1.8167,3.0213-2.79513a12.97819,12.97819,0,0,1,1.69416-1.38378,4.13978,4.13978,0,0,1,2.26829-.66822A.462.462,0,0,1,76.78133,23.85928Z" style="fill:#f5bdc8;stroke:#9c374c;stroke-miterlimit:10;stroke-width:0.2px"/>





<path d="M27.30074,34.36474c.09084-.45654.16969-.94971.25225-1.46631.18505-1.15722.41552-2.59765.80957-4.10644.47314-1.80664.95019-3.21778,1.333-4.35156a15.56659,15.56659,0,0,0,.91313-3.44054c.03938-.45892.16132-1.21126,1.34431-.915a5.4122,5.4122,0,0,0,1.559.22078,6.36488,6.36488,0,0,0,4.16392-1.60026,1.16108,1.16108,0,0,1,1.86434.57831,12.57285,12.57285,0,0,0,1.5163,3.27244C33.92649,17.82989,28.01709,27.65841,27.30074,34.36474Z" style="fill:#fff;opacity:0.2"/>






<path d="M48.478,38.82534c.04837.83082.07652,1.81789.05205,3.01059a30.23185,30.23185,0,0,1-.48731,4.88379,7.4411,7.4411,0,0,0-.15593,2.09021c.11284.50843.536.7963.48557,1.08212s-.41557.26369-.70439.62a5.91013,5.91013,0,0,0-.73072,2.11489,17.75331,17.75331,0,0,1-.76172,2.78711,15.55612,15.55612,0,0,1-1.10644,2.30176,6.03619,6.03619,0,0,0-.84741,2.06752c-.078.541.71388,1.67593-.48755,1.704A4.46821,4.46821,0,0,0,41.28883,62.541a6.1738,6.1738,0,0,1-3.55762,1.40625,5.012,5.012,0,0,1-.873-.0791,8.24345,8.24345,0,0,1-4.31055-2.66406c-.98046-.95508-1.82763-1.78125-3.00781-1.78125-1.02281.038-.16323-1.2589-.24929-1.94909A11.64185,11.64185,0,0,0,28.47,54.81347c-.3331-.85148-.5881-1.88658.411-.42822a13.62408,13.62408,0,0,0,4.65761,4.379c4.12651,2.18654,9.35756.70486,12.30045-8.94829a63.41432,63.41432,0,0,0,2.05123-11.03574C48.21682,36.76792,48.43179,38.0317,48.478,38.82534Z" style="fill:#ef90a0;opacity:0.4"/>





<ellipse cx="37.45401" cy="40.92407" rx="5.91009" ry="8.34365" style="fill:#c25b5d;opacity:0.8"/><ellipse cx="37.17271" cy="39.79887" rx="5.91009" ry="8.34365" style="fill:#df7288;stroke:#72281b;stroke-miterlimit:10;stroke-width:0.2px"/><ellipse cx="46.18391" cy="35.43877" rx="0.8255" ry="1.16541" transform="translate(-7.94936 14.02735) rotate(-15.92011)" style="fill:#c25b5d;opacity:0.4"/>




<ellipse cx="45.57738" cy="46.89295" rx="1.16541" ry="0.8255" transform="translate(-13.60587 74.70641) rotate(-70.98649)" style="fill:#c25b5d;opacity:0.4"/>




<ellipse cx="31.86079" cy="54.56918" rx="0.8255" ry="1.16541" transform="translate(-13.74614 10.83231) rotate(-15.92011)" style="fill:#c25b5d;opacity:0.4"/>



<ellipse cx="31.00478" cy="28.92828" rx="0.78165" ry="0.55367" transform="translate(-5.31847 50.80894) rotate(-74.07989)" style="fill:#c25b5d;opacity:0.4"/>




<ellipse cx="40.48239" cy="57.28776" rx="0.78165" ry="0.55367" transform="translate(-25.71229 80.5036) rotate(-74.07989)" style="fill:#c25b5d;opacity:0.4"/>



<ellipse cx="42.50866" cy="51.28975" rx="0.78165" ry="0.55367" transform="translate(-18.47387 78.09937) rotate(-74.07989)" style="fill:#c25b5d;opacity:0.4"/>




<ellipse cx="28.17416" cy="46.7077" rx="0.55367" ry="0.78165" transform="translate(-9.36734 7.13462) rotate(-12.39245)" style="fill:#c25b5d;opacity:0.4"/><ellipse cx="29.7088" cy="34.94415" rx="0.78165" ry="0.55367" transform="translate(-10.79687 56.46151) rotate(-77.60755)" style="fill:#c25b5d;opacity:0.4"/>



<ellipse cx="38.92294" cy="27.17013" rx="0.55367" ry="0.78165" transform="translate(-4.92401 8.98617) rotate(-12.39245)" style="fill:#c25b5d;opacity:0.4"/><path d="M41.70351,36.93994a10.51469,10.51469,0,0,1,.38707,2.85888c0,4.05371-2.20605,7.35157-4.918,7.35157-2.36924,0-4.35238-2.51709-4.81573-5.85645C34.35351,46.49511,42.25845,44.85193,41.70351,36.93994Z" style="fill:#c25b5d;opacity:0.4"/>


</g></g></svg>




<svg xmlns="http://www.w3.org/2000/svg" viewBox="0 0 76.88165 85.23937"><title>资源 782</title><g id="图层_2" data-name="图层 2"><g id="图层_1-2" data-name="图层 1"><path d="M76.78133,23.85928a.45441.45441,0,0,1-.4424.44257l-.05647.0092a3.03422,3.03422,0,0,0-1.64711.59331A11.284,11.284,0,0,0,73.14822,26.222a40.57873,40.57873,0,0,1-2.98361,2.99275,7.80053,7.80053,0,0,1-4.07545,1.9486c-.38587.01884-.78116.028-1.17651.03768-.38587-.03768-.76237-.11305-1.14824-.15993-.71533-.1319-1.34592-.30148-2.033-.41454a16.081,16.081,0,0,0-7.80264.00965,6.97586,6.97586,0,0,0-3.04009,1.94814,7.62689,7.62689,0,0,0-.84711,1.12c-.96,1.35529.01885,2.63566-.09409,8.16066-.10352,5.53419-1.47771,7.01172-.02827,7.407.66828.19762,1.31772.45177,1.99536.59331a14.31318,14.31318,0,0,0,4.179.45177,8.75015,8.75015,0,0,0,2.033-.33917,5.43171,5.43171,0,0,0,1.75064-.86584l.07531-.05652a.52763.52763,0,0,1,.68706.80011,6.15929,6.15929,0,0,1-2.09887,1.27073,9.5152,9.5152,0,0,1-2.306.574h-.0659c.50824.273.99768.56482,1.47771.88468a12.44545,12.44545,0,0,1,2.75773,2.40955,8.14127,8.14127,0,0,1,1.713,3.26619.34874.34874,0,0,1-.66827.19762l-.00942-.00965a7.33373,7.33373,0,0,0-1.74122-2.82362,11.49781,11.49781,0,0,0-2.673-2.02351,21.01715,21.01715,0,0,0-5.75083-2.12691c-.5647-.09421-1.12-.2353-1.68474-.3672-1.36476-.31067-.90809,1.67488-2.08808,4.8064s-2.4956,3.5891-1.59207,5.43383A13.7527,13.7527,0,0,0,47.585,64.09592a38.6371,38.6371,0,0,0,4.80956,4.90365c.50829.45176,1.01652.932,1.51533,1.42147a7.8469,7.8469,0,0,0,1.83537.77162c.913.2638,1.91068.43292,2.9272.70591a7.91105,7.91105,0,0,1,2.9083,1.393A7.16754,7.16754,0,0,1,63.548,75.84217a.45067.45067,0,0,1-.80006.41454l-.00942-.00965a6.23026,6.23026,0,0,0-1.78826-2.11772,6.54516,6.54516,0,0,0-2.56954-1.05426c-.78116-.17878-1.6-.301-2.44712-.47061a15.02136,15.02136,0,0,1,1.3083,1.807,10.06653,10.06653,0,0,1,1.29887,3.52033A11.256,11.256,0,0,1,58.5313,81.659a.60367.60367,0,0,1-1.19536-.16958,9.14168,9.14168,0,0,0-1.37412-6.29663,23.37527,23.37527,0,0,0-4.74373-4.85632,40.46822,40.46822,0,0,1-5.2519-4.951A16.08037,16.08037,0,0,1,44.545,63.39966c-1.43065-1.98628-3.219,2.70138-7.93437,1.86358s-6.10849-5.94827-7.925-3.9721A13.92637,13.92637,0,0,1,26.342,63.4277a.00938.00938,0,0,0-.00942.00965,5.39028,5.39028,0,0,0-1.69417,1.81623,5.10564,5.10564,0,0,0-.55528,2.84247,13.803,13.803,0,0,0,1.233,4.25428,9.4193,9.4193,0,0,0,1.6377,1.86357,10.0176,10.0176,0,0,0,2.61652,1.5529,14.8459,14.8459,0,0,1,2.92715,1.54371,13.26537,13.26537,0,0,1,2.43775,2.25881.37581.37581,0,0,1-.03763.53678.3699.3699,0,0,1-.51771-.02849h-.00936a12.96072,12.96072,0,0,0-2.38129-2.00467,15.58351,15.58351,0,0,0-2.833-1.3084,13.03281,13.03281,0,0,1-2.26829-1.07265c.46119.9504.90353,1.92929,1.28,2.94587a10.03185,10.03185,0,0,1,.6777,6.05213.59587.59587,0,0,1-1.15772-.28264,8.92374,8.92374,0,0,0-.79058-5.28c-.70591-1.73168-1.65654-3.40729-2.53186-5.1578a16.95867,16.95867,0,0,1-1.97657-5.73227,7.11538,7.11538,0,0,1,.16941-2.55064c-.79058.43292-1.5718.85665-2.28712,1.3369a13.775,13.775,0,0,0-4.44248,4.781,14.89068,14.89068,0,0,0-1.75063,6.372V78.186a.67848.67848,0,0,1-1.35534-.04688,16.553,16.553,0,0,1,1.69416-7.08755,15.41307,15.41307,0,0,1,4.80014-5.553c2.00478-1.42147,4.15076-2.40036,5.85434-3.75564a10.71385,10.71385,0,0,0,2.47538-2.66323c1.1953-1.779-.93184-3.51115-2.146-9.44977-1.20472-5.94872-.11294-7.77461-1.34592-10.66395a9.0323,9.0323,0,0,0-3.79309-3.69912,16.0759,16.0759,0,0,0-6.38136-1.21419c-.62118-.028-1.25183-.04688-1.89184-.06572a4.25168,4.25168,0,0,0-2.66363.819,14.56317,14.56317,0,0,0-2.53186,2.56948,5.3223,5.3223,0,0,1-.67764.7059,5.29874,5.29874,0,0,0-.41413,1.421c-.11294.67787-.2353,1.38378-.42356,2.08a7.05137,7.05137,0,0,1-.86589,2.01431A6.03176,6.03176,0,0,1,2.8871,45.19685a.33362.33362,0,0,1-.47061-.07537.32658.32658,0,0,1,.05647-.45176l.00942-.00965a5.19321,5.19321,0,0,0,1.25177-1.46834,6.4286,6.4286,0,0,0,.66828-1.82589c.1412-.64938.21646-1.32725.30119-2.0235.00942-.08457.02821-.18843.03763-.28264a9.88656,9.88656,0,0,1-1.20472.631A5.93832,5.93832,0,0,0,.76,41.8461a.37175.37175,0,0,1-.49887.1034.3604.3604,0,0,1-.11294-.48025A5.70413,5.70413,0,0,1,1.42824,39.8975a9.64655,9.64655,0,0,1,1.63769-1.11033,7.60884,7.60884,0,0,0,2.69184-2.24042A17.58628,17.58628,0,0,1,8.20489,33.6574c-.48-.07537-.96-.15993-1.44-.28217a8.71981,8.71981,0,0,1-3.38833-1.69445,8.47236,8.47236,0,0,1-2.16482-3.05893.55829.55829,0,0,1,.28241-.74359.56391.56391,0,0,1,.72469.24495v.00919a7.42108,7.42108,0,0,0,2.0424,2.44724,7.37776,7.37776,0,0,0,2.88015,1.233,35.61287,35.61287,0,0,0,6.77665.2445,17.86275,17.86275,0,0,1,7.26616,1.205A10.27706,10.27706,0,0,1,24.309,35.42676c1.82595,1.61908,1.42124-2.16459,2.68242-6.99287,1.26125-4.8191,2.513-6.78654,2.15535-8.49937a7.06518,7.06518,0,0,0-.24467-.75278A3.8157,3.8157,0,0,0,27.302,16.83791a10.485,10.485,0,0,0-3.20013-1.0823,15.79244,15.79244,0,0,1-3.72715-1.21419,7.61329,7.61329,0,0,1-3.01187-2.73906.67358.67358,0,0,1,1.11061-.762l.01885.0092a6.17,6.17,0,0,0,2.56948,2.04234,9.18181,9.18181,0,0,0,1.65653.51794,6.37835,6.37835,0,0,1-.68712-1.478,7.399,7.399,0,0,1-.30114-1.33644c0-.00919-.00942-.01884-.01884-.028-.00942-.0285-.00942-.05653-.01884-.07537v-.01885a3.755,3.755,0,0,0-1.16709-2.26845c-.33882-.28218-.76238-.52714-1.20477-.83781A4.50244,4.50244,0,0,1,18.144,6.39041a.42943.42943,0,0,1,.113-.59285.439.439,0,0,1,.58354.08456,3.45986,3.45986,0,0,0,1.02588.84746c.3953.2353.87532.45176,1.34592.77162a4.10447,4.10447,0,0,1,.61181.53633,9.18207,9.18207,0,0,1,.39529-1.4302.53925.53925,0,0,1,1.02595.32906l-.00943.02849a7.65382,7.65382,0,0,0-.17883,3.36v.00965a1.11611,1.11611,0,0,1,.02821.188,4.90076,4.90076,0,0,0,.33888,1.11079,4.46975,4.46975,0,0,0,1.2706,1.78821,4.72951,4.72951,0,0,0,1.38361.80931,8.63876,8.63876,0,0,1,2.27771.79092,7.93885,7.93885,0,0,1,.9412.64938,7.36426,7.36426,0,0,1,.8.82816,8.88458,8.88458,0,0,1,.62123.96924l.13172.19807c1.52481,2.25881,6.77671,1.49638,7.57677-3.21931.01879-.10341.047-.21646.06589-.31987a10.37986,10.37986,0,0,1,1.77884-4.14122A7.32653,7.32653,0,0,1,43.199,7.73651a4.39461,4.39461,0,0,0,1.28-1.40217,22.314,22.314,0,0,0,1.03531-2.353A7.24728,7.24728,0,0,1,47.058,1.46791,5.26791,5.26791,0,0,1,49.731.11263a.56182.56182,0,0,1,.6588.43292.56526.56526,0,0,1-.3953.64984h-.01884a4.14241,4.14241,0,0,0-1.97651,1.16686,6.04919,6.04919,0,0,0-1.08241,2.12736,21.84892,21.84892,0,0,1-.8659,2.43759c1.02594-.19762,2.0142-.32952,2.92714-.546a3.81711,3.81711,0,0,0,2.95541-2.09887.72543.72543,0,0,1,1.35534.51748l-.00942.01884a4.72139,4.72139,0,0,1-1.5718,2.11772,7.07469,7.07469,0,0,1-2.28713,1.06345c-1.54359.44257-3.0213.64019-4.32959,1.08276a5.9097,5.9097,0,0,0-3.11539,2.1554c-.66823.97889-.98826,1.67515-1.27061,4.019-.41414,4.32918.92236,5.38345,3.71778,10.02377,2.79536,4.63986,3.71778,7.06825,5.12959,5.58107a9.26457,9.26457,0,0,1,3.66126-2.08923A11.15262,11.15262,0,0,0,54.55,27.61492a14.88373,14.88373,0,0,0,2.07062-2.871,20.0338,20.0338,0,0,1,2.01419-3.16232,4.58829,4.58829,0,0,1,1.553-1.18571,6.83611,6.83611,0,0,1,.93179-.32032l.96005-.11259a.263.263,0,0,1,.29177.22565.25792.25792,0,0,1-.22594.29183h-.01878l-.00943.00965a3.97044,3.97044,0,0,0-2.91772,1.57174,19.63417,19.63417,0,0,0-1.73184,3.14349,15.8292,15.8292,0,0,1-2.0142,3.15314,21.22925,21.22925,0,0,1,6.62614.65856c.13172.0285.27293.06618.40471.10387a3.1643,3.1643,0,0,0,2.4377-.86584,9.3916,9.3916,0,0,0,1.77889-3.7368,21.47628,21.47628,0,0,1,1.5718-4.22624,6.37935,6.37935,0,0,1,1.46828-1.82589,5.29782,5.29782,0,0,1,2.07067-1.06345.26093.26093,0,0,1,.32.18842.26376.26376,0,0,1-.17883.31987,4.97838,4.97838,0,0,0-3.0213,2.72941,20.85571,20.85571,0,0,0-1.30829,4.14122A10.26842,10.26842,0,0,1,65.788,29.05477a3.87416,3.87416,0,0,1-.76238.64019l.91295.00919a6.47939,6.47939,0,0,0,3.41658-1.47753c1.04473-.819,1.99536-1.8167,3.0213-2.79513a12.97819,12.97819,0,0,1,1.69416-1.38378,4.13978,4.13978,0,0,1,2.26829-.66822A.462.462,0,0,1,76.78133,23.85928Z" style="fill: rgb(199, 220, 234); stroke: rgb(55, 113, 156); stroke-miterlimit: 10; stroke-width: 0.2px;" fill="#c7dcea" stroke="#37719c"></path><path d="M27.30074,34.36474c.09084-.45654.16969-.94971.25225-1.46631.18505-1.15722.41552-2.59765.80957-4.10644.47314-1.80664.95019-3.21778,1.333-4.35156a15.56659,15.56659,0,0,0,.91313-3.44054c.03938-.45892.16132-1.21126,1.34431-.915a5.4122,5.4122,0,0,0,1.559.22078,6.36488,6.36488,0,0,0,4.16392-1.60026,1.16108,1.16108,0,0,1,1.86434.57831,12.57285,12.57285,0,0,0,1.5163,3.27244C33.92649,17.82989,28.01709,27.65841,27.30074,34.36474Z" style="fill:#fff;opacity:0.2" fill="#ffffff"></path><path d="M48.478,38.82534c.04837.83082.07652,1.81789.05205,3.01059a30.23185,30.23185,0,0,1-.48731,4.88379,7.4411,7.4411,0,0,0-.15593,2.09021c.11284.50843.536.7963.48557,1.08212s-.41557.26369-.70439.62a5.91013,5.91013,0,0,0-.73072,2.11489,17.75331,17.75331,0,0,1-.76172,2.78711,15.55612,15.55612,0,0,1-1.10644,2.30176,6.03619,6.03619,0,0,0-.84741,2.06752c-.078.541.71388,1.67593-.48755,1.704A4.46821,4.46821,0,0,0,41.28883,62.541a6.1738,6.1738,0,0,1-3.55762,1.40625,5.012,5.012,0,0,1-.873-.0791,8.24345,8.24345,0,0,1-4.31055-2.66406c-.98046-.95508-1.82763-1.78125-3.00781-1.78125-1.02281.038-.16323-1.2589-.24929-1.94909A11.64185,11.64185,0,0,0,28.47,54.81347c-.3331-.85148-.5881-1.88658.411-.42822a13.62408,13.62408,0,0,0,4.65761,4.379c4.12651,2.18654,9.35756.70486,12.30045-8.94829a63.41432,63.41432,0,0,0,2.05123-11.03574C48.21682,36.76792,48.43179,38.0317,48.478,38.82534Z" style="fill: rgb(181, 209, 227); opacity: 0.4;" fill="#b5d1e3"></path><ellipse cx="37.45401" cy="40.92407" rx="5.91009" ry="8.34365" style="fill: rgb(109, 161, 199); opacity: 0.8;" fill="#6da1c7"></ellipse><ellipse cx="37.17271" cy="39.79887" rx="5.91009" ry="8.34365" style="fill: rgb(127, 174, 205); stroke: rgb(27, 77, 114); stroke-miterlimit: 10; stroke-width: 0.2px;" fill="#7faecd" stroke="#1b4d72"></ellipse><ellipse cx="46.18391" cy="35.43877" rx="0.8255" ry="1.16541" transform="translate(-7.94936 14.02735) rotate(-15.92011)" style="fill: rgb(109, 161, 199); opacity: 0.4;" fill="#6da1c7"></ellipse><ellipse cx="45.57738" cy="46.89295" rx="1.16541" ry="0.8255" transform="translate(-13.60587 74.70641) rotate(-70.98649)" style="fill: rgb(109, 161, 199); opacity: 0.4;" fill="#6da1c7"></ellipse><ellipse cx="31.86079" cy="54.56918" rx="0.8255" ry="1.16541" transform="translate(-13.74614 10.83231) rotate(-15.92011)" style="fill: rgb(109, 161, 199); opacity: 0.4;" fill="#6da1c7"></ellipse><ellipse cx="31.00478" cy="28.92828" rx="0.78165" ry="0.55367" transform="translate(-5.31847 50.80894) rotate(-74.07989)" style="fill: rgb(109, 161, 199); opacity: 0.4;" fill="#6da1c7"></ellipse><ellipse cx="40.48239" cy="57.28776" rx="0.78165" ry="0.55367" transform="translate(-25.71229 80.5036) rotate(-74.07989)" style="fill: rgb(109, 161, 199); opacity: 0.4;" fill="#6da1c7"></ellipse><ellipse cx="42.50866" cy="51.28975" rx="0.78165" ry="0.55367" transform="translate(-18.47387 78.09937) rotate(-74.07989)" style="fill: rgb(109, 161, 199); opacity: 0.4;" fill="#6da1c7"></ellipse><ellipse cx="28.17416" cy="46.7077" rx="0.55367" ry="0.78165" transform="translate(-9.36734 7.13462) rotate(-12.39245)" style="fill: rgb(109, 161, 199); opacity: 0.4;" fill="#6da1c7"></ellipse><ellipse cx="29.7088" cy="34.94415" rx="0.78165" ry="0.55367" transform="translate(-10.79687 56.46151) rotate(-77.60755)" style="fill: rgb(109, 161, 199); opacity: 0.4;" fill="#6da1c7"></ellipse><ellipse cx="38.92294" cy="27.17013" rx="0.55367" ry="0.78165" transform="translate(-4.92401 8.98617) rotate(-12.39245)" style="fill: rgb(109, 161, 199); opacity: 0.4;" fill="#6da1c7"></ellipse><path d="M41.70351,36.93994a10.51469,10.51469,0,0,1,.38707,2.85888c0,4.05371-2.20605,7.35157-4.918,7.35157-2.36924,0-4.35238-2.51709-4.81573-5.85645C34.35351,46.49511,42.25845,44.85193,41.70351,36.93994Z" style="fill: rgb(109, 161, 199); opacity: 0.4;" fill="#6da1c7"></path></g></g></svg>
