<svg xmlns="http://www.w3.org/2000/svg" viewBox="0 0 85.23958 15.70924"><defs>



<style>.cls-1{fill:#d8c5dd;}.cls-1,.cls-6{stroke:#764d7b;stroke-miterlimit:10;stroke-width:0.2px;}.cls-2,.cls-8{fill:#fff;}.cls-2{opacity:0.2;}.cls-3{fill:#b59dc5;}.cls-3,.cls-7{opacity:0.4;}.cls-4{opacity:0.4;}.cls-5{fill:#323084;}.cls-6{fill:#9f7aae;}.cls-7{fill:#79507e;}.cls-8{opacity:0.6;}</style></defs>







<title>资源 68</title>





<g id="图层_2" data-name="图层 2"><g id="图层_1-2" data-name="图层 1">




<path class="cls-1" d="M.26032,12.703c-.09473-.00914-.16633-.126-.15992-.261A.222.222,0,0,1,.256,12.21448C20.36258,8.34836,22.28983.998,37.96523.16112,52.57769-.67158,57.83656,7.3013,69.39565,6.04774a137.76635,137.76635,0,0,1,15.578-.85975c.09489.00471.16913.11817.16583.25341a.22766.22766,0,0,1-.15157.23481C73.52284,7.96926,65.24306,12.7023,54.62467,14.97085c-11.24667,2.40276-25.3178-2.782-36.49227-2.35328A157.23512,157.23512,0,0,1,.26032,12.703Z" fill="#e0b5ae" stroke="#7b524d" style="fill: rgb(224, 181, 174); stroke: rgb(123, 82, 77);"></path>




<path class="cls-2" d="M25.804,3.82692a35.43491,35.43491,0,0,1,12.21446-2.6755q1.06787-.06006,2.06445-.05957c1.81536,0,2.03616.6.63507.73367a100.47365,100.47365,0,0,0-14.21875,2.292C25.30938,4.40667,24.88536,4.20462,25.804,3.82692Z" fill="#aa645b" style="fill: rgb(170, 100, 91);"></path>




<path class="cls-3" d="M63.4352,8.21433a1.224,1.224,0,0,1,1.31142-1.14745c.71284.06938,1.44684.107,2.20736.107a23.70314,23.70314,0,0,0,2.54785-.13965c2.53628-.258,4.77027-.44014,6.70007-.56866a.23826.23826,0,0,1,.0804.46647c-2.67745.84907-5.22271,1.77383-7.72578,2.68325a104.22071,104.22071,0,0,1-14.13867,4.38476,30.69507,30.69507,0,0,1-6.457.61719c-2.49975,0-4.86028-.51012-2.94337-.69412C52.32933,13.22128,63.13373,10.71038,63.4352,8.21433Z" fill="#c5a39d" style="fill: rgb(197, 163, 157);"></path>




<g class="cls-4">






<ellipse class="cls-5" cx="42.81983" cy="8.7294" rx="3.46536" ry="10.85035" transform="translate(31.23595 50.86673) rotate(-86.15129)" fill="#843a30" style="fill: rgb(132, 58, 48);"></ellipse>





</g><ellipse class="cls-6" cx="42.18867" cy="7.82102" rx="3.46536" ry="10.85035" transform="translate(31.5535 49.38958) rotate(-86.15129)" fill="#d69e94" stroke="#7b524d" style="fill: rgb(214, 158, 148); stroke: rgb(123, 82, 77);"></ellipse>





<path class="cls-7" d="M50.01258,7.25875c1.18168.431,1.93663.88523,1.9243,1.2866-.031,1.00723-4.8925,1.628-8.07845,1.65685-.5251.00477-1.26759-.0042-2.198-.0733q-.25621-.019-.51735-.043c-.52169-.04791-.61069-.25356.001-.30049.5528-.04241,1.16749-.09186,1.83326-.149,4.75312-.40825,6.38-.71819,6.56258-1.78918C49.56793,7.683,49.83314,7.1933,50.01258,7.25875Z" fill="#9f5b52" style="fill: rgb(159, 91, 82);"></path>






<path class="cls-8" d="M36.22439,5.78012c.0112.23192-.20426.34422-.47544.37083s-.49541-.04256-.5066-.27448a.48959.48959,0,0,1,.47074-.46811A.43467.43467,0,0,1,36.22439,5.78012Z" fill="#aa645b" style="fill: rgb(170, 100, 91);"></path></g></g></svg>
