<svg
  xmlns="http://www.w3.org/2000/svg"
  width="currentWidth"
  zoomAndPan="magnify"
  viewBox="0 0 48 72.749999"
  height="currentHeight"
  preserveAspectRatio="xMidYMid meet"
  version="1.0"
>
  <defs>
    <filter
      x="0%"
      y="0%"
      width="100%"
      height="100%"
      id="39a8146be2"
    >
      <feColorMatrix
        values="0 0 0 0 1 0 0 0 0 1 0 0 0 0 1 0 0 0 1 0"
        colorInterpolationFilters="sRGB"
      />
    </filter>
    <clipPath id="5137d9a3d8">
      <path
        d="M 0.0820312 0 L 47.917969 0 L 47.917969 72 L 0.0820312 72 Z M 0.0820312 0 "
        clipRule="nonzero"
      />
    </clipPath>
    <mask id="e6247c473b">
      <g filter="url(#39a8146be2)">
        <rect
          x="-4.8"
          width="57.6"
          fill="#000000"
          class="classTag"
          y="-7.275"
          height="87.299999"
          fillOpacity="0.43"
        />
      </g>
    </mask>
    <clipPath id="5fc2ab059c">
      <path
        d="M 21 0.238281 L 26 0.238281 L 26 5 L 21 5 Z M 21 0.238281 "
        clipRule="nonzero"
      />
    </clipPath>
    <clipPath id="397dfd6609">
      <path
        d="M 45 38 L 47.917969 38 L 47.917969 40 L 45 40 Z M 45 38 "
        clipRule="nonzero"
      />
    </clipPath>
    <clipPath id="d51945dd66">
      <path
        d="M 0.0820312 39 L 3 39 L 3 40 L 0.0820312 40 Z M 0.0820312 39 "
        clipRule="nonzero"
      />
    </clipPath>
    <clipPath id="b4f6489a6e">
      <path
        d="M 0.0820312 44 L 3 44 L 3 47 L 0.0820312 47 Z M 0.0820312 44 "
        clipRule="nonzero"
      />
    </clipPath>
    <clipPath id="b4cbd4e851">
      <path
        d="M 45 45 L 47.917969 45 L 47.917969 46 L 45 46 Z M 45 45 "
        clipRule="nonzero"
      />
    </clipPath>
    <clipPath id="06ac0384dc">
      <path
        d="M 20 67 L 26 67 L 26 71.753906 L 20 71.753906 Z M 20 67 "
        clipRule="nonzero"
      />
    </clipPath>
    <clipPath id="5ac7f92558">
      <rect
        x="0"
        width="48"
        y="0"
        height="72"
      />
    </clipPath>
    <clipPath id="f720302989">
      <path
        d="M 15.894531 31.390625 L 29.347656 31.390625 L 29.347656 46.339844 L 15.894531 46.339844 Z M 15.894531 31.390625 "
        clipRule="nonzero"
      />
    </clipPath>
  </defs>
  <g clipPath="url(#5137d9a3d8)">
    <g mask="url(#e6247c473b)">
      <g transform="matrix(1, 0, 0, 1, 0, 0.000000000000000583)">
        <g clipPath="url(#5ac7f92558)">
          <path
            fill="#ffffff"
            class="classTag"
            d="M 16.757812 58.285156 C 17.632812 55.636719 18.503906 52.984375 19.414062 50.21875 L 16.871094 48.640625 L 11.53125 55.640625 L 10.972656 55.28125 C 11.679688 54.066406 12.441406 52.828125 13.214844 51.625 C 13.984375 50.421875 14.898438 49.09375 15.746094 47.8125 C 15.234375 46.589844 14.5 46.457031 13.375 47.105469 C 12.265625 47.695312 11.128906 48.230469 9.96875 48.703125 L 9.671875 48.160156 L 13.863281 45.515625 C 13.554688 44.101562 12.824219 43.542969 11.296875 43.953125 C 9.769531 44.363281 8.085938 44.566406 6.476562 44.84375 C 6.101562 44.910156 5.792969 44.796875 5.546875 44.503906 L 12.386719 42.476562 C 12.269531 41.710938 12.09375 40.957031 11.863281 40.21875 C 11.671875 39.863281 11.375 39.65625 10.972656 39.597656 C 9.304688 39.503906 7.628906 39.527344 5.953125 39.476562 C 5.40625 39.476562 4.871094 39.335938 4.324219 39.265625 L 4.324219 38.734375 L 11.679688 38.375 C 11.824219 37.648438 11.902344 36.914062 11.917969 36.175781 C 11.917969 35.921875 11.425781 35.574219 11.09375 35.46875 C 9.375 34.945312 7.632812 34.503906 5.914062 34.003906 C 5.445312 33.875 5.097656 33.597656 4.871094 33.167969 C 5.253906 33.132812 5.636719 33.132812 6.023438 33.167969 C 7.480469 33.441406 8.929688 33.742188 10.371094 34.066406 C 12.492188 34.542969 12.492188 34.554688 13.15625 32.347656 L 9.796875 29.789062 L 10.128906 29.28125 C 10.917969 29.585938 11.671875 29.96875 12.386719 30.417969 C 13.453125 31.203125 14.28125 31.265625 15.015625 30.042969 C 15.230469 29.785156 15.464844 29.550781 15.722656 29.335938 L 11.140625 23.398438 L 11.480469 23.070312 C 11.882812 23.371094 12.265625 23.691406 12.625 24.035156 C 13.707031 25.207031 14.832031 26.359375 15.800781 27.625 C 16.464844 28.488281 17.039062 28.644531 17.886719 27.972656 C 18.28125 27.726562 18.691406 27.519531 19.117188 27.34375 C 18.671875 27.109375 18.363281 26.941406 18.042969 26.785156 C 17.023438 26.253906 16.101562 25.589844 15.277344 24.789062 C 14.453125 23.984375 13.765625 23.082031 13.210938 22.074219 C 12.65625 21.066406 12.261719 20 12.023438 18.875 C 11.789062 17.75 11.71875 16.613281 11.820312 15.46875 C 11.839844 15.039062 11.929688 14.621094 12.089844 14.21875 C 12.214844 13.933594 12.527344 13.566406 12.796875 13.554688 C 13.066406 13.539062 13.367188 13.898438 13.503906 14.175781 C 15.714844 18.460938 19.28125 20.34375 24.003906 19.675781 C 25.636719 19.433594 27.1875 18.941406 28.664062 18.199219 C 30.136719 17.457031 31.460938 16.507812 32.632812 15.34375 C 33.234375 14.691406 33.914062 14.132812 34.667969 13.667969 C 34.699219 13.65625 34.734375 13.65625 34.765625 13.667969 C 34.808594 13.679688 34.84375 13.707031 34.867188 13.746094 C 35.882812 15.160156 35.574219 16.914062 35.050781 18.441406 C 34.632812 19.835938 34.023438 21.140625 33.21875 22.355469 C 31.972656 24.367188 30.277344 25.863281 28.125 26.847656 C 27.753906 27.011719 27.417969 27.199219 26.972656 27.398438 C 32.582031 30.976562 32.582031 30.976562 34.753906 34.945312 L 41.527344 33.53125 L 41.632812 33.917969 L 35.09375 35.914062 C 35.183594 36.542969 35.324219 37.164062 35.507812 37.773438 C 35.714844 38.074219 36 38.25 36.363281 38.289062 C 38.070312 38.488281 39.78125 38.605469 41.484375 38.777344 C 41.984375 38.820312 42.417969 39.007812 42.785156 39.351562 L 35.785156 39.351562 C 35.664062 40.082031 35.59375 40.816406 35.574219 41.554688 C 35.574219 41.796875 35.976562 42.148438 36.28125 42.261719 C 37.90625 42.820312 39.546875 43.300781 41.179688 43.824219 C 41.566406 43.96875 41.945312 44.136719 42.3125 44.320312 L 42.226562 44.675781 L 38.238281 43.902344 C 38.011719 43.859375 37.785156 43.789062 37.53125 43.734375 C 35.210938 43.167969 35.210938 43.167969 34.371094 45.464844 L 37.6875 48.210938 L 37.382812 48.664062 L 33.699219 46.542969 L 31.726562 48.742188 C 33.253906 50.851562 34.777344 52.972656 36.300781 55.105469 L 35.835938 55.464844 L 30.84375 49.382812 L 28.085938 50.71875 C 28.921875 53.289062 29.761719 55.851562 30.59375 58.40625 L 30.175781 58.597656 C 29.933594 58.257812 29.710938 57.90625 29.511719 57.535156 C 28.679688 55.683594 27.835938 53.839844 27.085938 51.957031 C 26.796875 51.25 26.378906 51.117188 25.671875 51.128906 C 24.3125 51.152344 22.960938 51.066406 21.613281 50.867188 C 20.90625 50.753906 20.582031 50.867188 20.328125 51.574219 C 19.570312 53.578125 18.75 55.558594 17.921875 57.535156 C 17.738281 57.886719 17.515625 58.214844 17.265625 58.519531 Z M 34.117188 39.617188 C 34.03125 33.535156 29.058594 28.070312 23.578125 28.09375 C 17.613281 28.09375 13.183594 32.449219 13.25 38.191406 C 13.242188 38.949219 13.3125 39.699219 13.453125 40.445312 C 13.597656 41.1875 13.8125 41.910156 14.101562 42.613281 C 14.390625 43.316406 14.742188 43.980469 15.164062 44.613281 C 15.582031 45.242188 16.0625 45.828125 16.597656 46.363281 C 17.136719 46.898438 17.71875 47.375 18.351562 47.796875 C 18.980469 48.214844 19.648438 48.566406 20.351562 48.855469 C 21.054688 49.140625 21.777344 49.355469 22.519531 49.5 C 23.265625 49.640625 24.015625 49.710938 24.773438 49.703125 C 29.964844 49.625 34.195312 45.078125 34.117188 39.648438 Z M 33.945312 16.15625 C 27.34375 21.648438 20.589844 23.582031 13.476562 17.0625 C 13.347656 22.152344 18 26.507812 23.375 26.324219 C 28.75 26.140625 34.386719 20.808594 33.945312 16.183594 Z M 33.945312 16.15625 "
            fillOpacity="1"
            fillRule="nonzero"
          />
          <path
            fill="#ffffff"
            d="M 26.882812 10.003906 C 26.902344 10.476562 26.832031 10.933594 26.667969 11.378906 C 26.503906 11.820312 26.261719 12.214844 25.9375 12.5625 C 25.617188 12.910156 25.238281 13.179688 24.808594 13.375 C 24.378906 13.570312 23.925781 13.675781 23.453125 13.6875 C 22.960938 13.679688 22.488281 13.574219 22.035156 13.375 C 21.582031 13.175781 21.1875 12.898438 20.847656 12.542969 C 20.507812 12.183594 20.25 11.777344 20.074219 11.316406 C 19.898438 10.855469 19.816406 10.375 19.832031 9.882812 C 19.820312 9.410156 19.898438 8.949219 20.066406 8.507812 C 20.230469 8.0625 20.476562 7.667969 20.796875 7.320312 C 21.121094 6.972656 21.496094 6.695312 21.921875 6.492188 C 22.351562 6.289062 22.800781 6.175781 23.277344 6.148438 C 25.179688 6.113281 26.882812 7.9375 26.882812 10.003906 Z M 25.21875 11.253906 L 21.578125 8.476562 C 20.914062 10.011719 21.195312 11.304688 22.285156 11.949219 C 23.375 12.59375 24.308594 12.371094 25.21875 11.253906 Z M 22.390625 8.058594 C 22.609375 8.484375 23.339844 8.765625 23.734375 9.027344 L 25.441406 10.203125 C 25.511719 10.238281 25.550781 10.300781 25.558594 10.378906 C 25.488281 9.898438 25.375 9.425781 25.21875 8.964844 C 24.796875 7.542969 23.574219 7.75 22.390625 8.082031 Z M 22.390625 8.058594 "
            fillOpacity="1"
            fillRule="nonzero"
            class="classTag"
          />
          <g clipPath="url(#5fc2ab059c)">
            <path
              fill="#ffffff"
              class="classTag"
              d="M 23.507812 4.234375 C 23.214844 4.234375 22.933594 4.175781 22.664062 4.058594 C 22.394531 3.945312 22.160156 3.777344 21.960938 3.566406 C 21.757812 3.351562 21.609375 3.105469 21.507812 2.832031 C 21.410156 2.554688 21.371094 2.269531 21.386719 1.976562 C 21.386719 1.003906 21.847656 0.316406 22.914062 0.300781 C 24.363281 0.300781 25.628906 1.335938 25.625 2.5 C 25.605469 2.757812 25.539062 3.003906 25.417969 3.234375 C 25.300781 3.464844 25.140625 3.660156 24.941406 3.824219 C 24.742188 3.988281 24.515625 4.105469 24.269531 4.179688 C 24.019531 4.25 23.765625 4.265625 23.507812 4.234375 Z M 23.996094 1.625 C 23.773438 1.351562 23.492188 1.265625 23.15625 1.363281 C 22.949219 1.414062 22.449219 1.6875 22.449219 1.949219 C 22.460938 2.003906 22.480469 2.058594 22.511719 2.105469 C 22.753906 2.550781 23.21875 3.34375 23.839844 2.953125 C 23.949219 2.886719 24.039062 2.800781 24.105469 2.695312 C 24.175781 2.589844 24.21875 2.472656 24.238281 2.347656 C 24.257812 2.222656 24.246094 2.097656 24.210938 1.976562 C 24.175781 1.855469 24.117188 1.746094 24.03125 1.652344 Z M 23.996094 1.625 "
              fillOpacity="1"
              fillRule="nonzero"
            />
          </g>
          <path
            fill="#ffffff"
            class="classTag"
            d="M 36.289062 23.148438 C 34.871094 25.128906 33.457031 27.125 32.042969 29.082031 C 31.925781 29.238281 31.5 29.175781 31.21875 29.210938 C 31.21875 28.925781 31.082031 28.503906 31.21875 28.367188 C 32.710938 26.464844 34.242188 24.605469 35.769531 22.710938 Z M 36.289062 23.148438 "
            fillOpacity="1"
            fillRule="nonzero"
          />
          <path
            fill="#ffffff"
            class="classTag"
            d="M 37.667969 29.210938 C 36.859375 30.90625 35.199219 32.152344 33.925781 31.613281 L 37.40625 28.878906 Z M 37.667969 29.210938 "
            fillOpacity="1"
            fillRule="nonzero"
          />
          <path
            fill="#ffffff"
            class="classTag"
            d="M 42.121094 26.308594 L 40 27.929688 L 39.582031 27.390625 L 41.703125 25.757812 Z M 42.121094 26.308594 "
            fillOpacity="1"
            fillRule="nonzero"
          />
          <path
            fill="#ffffff"
            class="classTag"
            d="M 9.289062 19.597656 L 10.972656 21.425781 L 10.46875 21.898438 L 8.78125 20.050781 Z M 9.289062 19.597656 "
            fillOpacity="1"
            fillRule="nonzero"
          />
          <path
            fill="#ffffff"
            class="classTag"
            d="M 38.597656 19.824219 L 37.183594 21.601562 L 36.640625 21.167969 L 38.097656 19.394531 Z M 38.597656 19.824219 "
            fillOpacity="1"
            fillRule="nonzero"
          />
          <path
            fill="#ffffff"
            class="classTag"
            d="M 39.199219 49.800781 L 41.726562 50.75 L 41.5 51.328125 L 39.003906 50.316406 Z M 39.199219 49.800781 "
            fillOpacity="1"
            fillRule="nonzero"
          />
          <path
            fill="#ffffff"
            class="classTag"
            d="M 16.863281 59.785156 L 15.753906 62.035156 L 15.144531 61.730469 L 16.269531 59.488281 Z M 16.863281 59.785156 "
            fillOpacity="1"
            fillRule="nonzero"
          />
          <path
            fill="#ffffff"
            class="classTag"
            d="M 44.128906 32.40625 L 46.476562 31.664062 L 46.675781 32.214844 L 44.355469 33.085938 C 44.277344 32.828125 44.207031 32.632812 44.128906 32.40625 Z M 44.128906 32.40625 "
            fillOpacity="1"
            fillRule="nonzero"
          />
          <path
            fill="#ffffff"
            class="classTag"
            d="M 31.371094 62.140625 L 30.773438 60.203125 L 31.378906 59.992188 C 31.613281 60.632812 31.847656 61.277344 32.085938 61.914062 Z M 31.371094 62.140625 "
            fillOpacity="1"
            fillRule="nonzero"
          />
          <path
            fill="#ffffff"
            class="classTag"
            d="M 38.753906 58.511719 L 37.339844 57.097656 L 37.855469 56.609375 L 39.179688 58.082031 Z M 38.753906 58.511719 "
            fillOpacity="1"
            fillRule="nonzero"
          />
          <g clipPath="url(#397dfd6609)">
            <path
              fill="#ffffff"
              class="classTag"
              d="M 45.570312 38.671875 L 47.742188 38.671875 L 47.742188 39.039062 L 45.566406 39.039062 Z M 45.570312 38.671875 "
              fillOpacity="1"
              fillRule="nonzero"
            />
          </g>
          <path
            fill="#ffffff"
            class="classTag"
            d="M 10.457031 56.589844 L 9.226562 58.414062 L 8.78125 58.125 L 9.96875 56.269531 Z M 10.457031 56.589844 "
            fillOpacity="1"
            fillRule="nonzero"
          />
          <g clipPath="url(#d51945dd66)">
            <path
              fill="#ffffff"
              class="classTag"
              d="M 0.140625 39.046875 L 2.308594 39.046875 L 2.308594 39.363281 L 0.0976562 39.363281 Z M 0.140625 39.046875 "
              fillOpacity="1"
              fillRule="nonzero"
            />
          </g>
          <g clipPath="url(#b4f6489a6e)">
            <path
              fill="#ffffff"
              class="classTag"
              d="M 0.832031 45.507812 L 2.769531 44.964844 L 2.933594 45.488281 L 1.007812 46.125 Z M 0.832031 45.507812 "
              fillOpacity="1"
              fillRule="nonzero"
            />
          </g>
          <path
            fill="#ffffff"
            class="classTag"
            d="M 7.902344 50.175781 L 6.199219 51.257812 L 5.914062 50.828125 L 7.570312 49.714844 Z M 7.902344 50.175781 "
            fillOpacity="1"
            fillRule="nonzero"
          />
          <g clipPath="url(#b4cbd4e851)">
            <path
              fill="#ffffff"
              class="classTag"
              d="M 47.226562 45.699219 L 45.304688 45.496094 L 45.34375 45.027344 L 47.289062 45.140625 Z M 47.226562 45.699219 "
              fillOpacity="1"
              fillRule="nonzero"
            />
          </g>
          <path
            fill="#ffffff"
            class="classTag"
            d="M 23.085938 18.148438 C 22.792969 18.152344 22.507812 18.09375 22.238281 17.976562 C 21.96875 17.859375 21.734375 17.695312 21.53125 17.480469 C 21.332031 17.265625 21.179688 17.019531 21.082031 16.742188 C 20.984375 16.464844 20.945312 16.179688 20.964844 15.886719 C 20.964844 14.910156 21.421875 14.234375 22.492188 14.21875 C 23.90625 14.21875 25.199219 15.25 25.199219 16.410156 C 25.179688 16.667969 25.113281 16.914062 24.992188 17.140625 C 24.875 17.371094 24.714844 17.570312 24.515625 17.734375 C 24.316406 17.898438 24.089844 18.015625 23.84375 18.089844 C 23.59375 18.160156 23.34375 18.179688 23.085938 18.148438 Z M 23.566406 15.539062 C 23.347656 15.269531 23.070312 15.179688 22.730469 15.273438 C 22.519531 15.328125 22.023438 15.605469 22.023438 15.867188 C 22.03125 15.921875 22.050781 15.972656 22.082031 16.019531 C 22.320312 16.460938 22.789062 17.257812 23.417969 16.871094 C 23.523438 16.800781 23.613281 16.714844 23.679688 16.605469 C 23.75 16.5 23.792969 16.382812 23.808594 16.257812 C 23.828125 16.132812 23.820312 16.011719 23.785156 15.890625 C 23.75 15.765625 23.691406 15.65625 23.609375 15.5625 Z M 23.566406 15.539062 "
            fillOpacity="1"
            fillRule="nonzero"
          />
          <path
            fill="#ffffff"
            class="classTag"
            d="M 23.367188 57.613281 C 23.074219 57.617188 22.792969 57.558594 22.523438 57.441406 C 22.253906 57.324219 22.019531 57.160156 21.816406 56.945312 C 21.617188 56.734375 21.46875 56.488281 21.367188 56.210938 C 21.269531 55.9375 21.226562 55.652344 21.246094 55.359375 C 21.246094 54.382812 21.707031 53.695312 22.773438 53.683594 C 24.1875 53.683594 25.488281 54.714844 25.480469 55.882812 C 25.464844 56.140625 25.398438 56.386719 25.277344 56.613281 C 25.160156 56.84375 25 57.042969 24.800781 57.207031 C 24.601562 57.371094 24.375 57.488281 24.125 57.558594 C 23.878906 57.628906 23.625 57.648438 23.367188 57.613281 Z M 23.855469 55.003906 C 23.625 54.726562 23.339844 54.640625 22.992188 54.75 C 22.78125 54.800781 22.285156 55.074219 22.285156 55.34375 C 22.296875 55.398438 22.320312 55.449219 22.351562 55.492188 C 22.589844 55.9375 23.058594 56.730469 23.679688 56.34375 C 23.785156 56.273438 23.875 56.1875 23.945312 56.082031 C 24.011719 55.976562 24.058594 55.859375 24.074219 55.734375 C 24.09375 55.609375 24.085938 55.488281 24.050781 55.367188 C 24.011719 55.242188 23.953125 55.136719 23.871094 55.039062 Z M 23.855469 55.003906 "
            fillOpacity="1"
            fillRule="nonzero"
          />
          <g clipPath="url(#06ac0384dc)">
            <path
              fill="#ffffff"
              class="classTag"
              d="M 22.945312 71.53125 C 22.648438 71.53125 22.367188 71.472656 22.097656 71.359375 C 21.832031 71.242188 21.59375 71.078125 21.394531 70.863281 C 21.191406 70.648438 21.042969 70.40625 20.945312 70.128906 C 20.84375 69.851562 20.804688 69.566406 20.820312 69.273438 C 20.820312 68.292969 21.28125 67.613281 22.351562 67.597656 C 23.765625 67.597656 25.058594 68.632812 25.058594 69.796875 C 25.023438 70.800781 24.140625 71.53125 22.945312 71.53125 Z M 23.425781 68.921875 C 23.207031 68.648438 22.925781 68.558594 22.589844 68.652344 C 22.378906 68.710938 21.847656 68.984375 21.882812 69.246094 C 21.890625 69.304688 21.910156 69.355469 21.941406 69.402344 C 22.179688 69.847656 22.648438 70.640625 23.277344 70.25 C 23.382812 70.183594 23.46875 70.09375 23.539062 69.988281 C 23.605469 69.882812 23.652344 69.765625 23.667969 69.640625 C 23.6875 69.515625 23.679688 69.390625 23.644531 69.269531 C 23.609375 69.148438 23.550781 69.039062 23.46875 68.941406 Z M 23.425781 68.921875 "
              fillOpacity="1"
              fillRule="nonzero"
            />
          </g>
          <path
            fill="#ffffff"
            class="classTag"
            d="M 26.898438 62.339844 C 26.917969 62.8125 26.84375 63.269531 26.679688 63.714844 C 26.515625 64.160156 26.273438 64.554688 25.949219 64.898438 C 25.625 65.246094 25.25 65.515625 24.816406 65.710938 C 24.386719 65.90625 23.933594 66.007812 23.460938 66.023438 C 22.964844 66.011719 22.492188 65.910156 22.042969 65.710938 C 21.589844 65.511719 21.195312 65.234375 20.855469 64.875 C 20.515625 64.519531 20.257812 64.109375 20.082031 63.648438 C 19.90625 63.1875 19.824219 62.710938 19.839844 62.21875 C 19.828125 61.746094 19.90625 61.285156 20.074219 60.84375 C 20.238281 60.398438 20.484375 60.003906 20.804688 59.65625 C 21.125 59.308594 21.5 59.035156 21.929688 58.832031 C 22.359375 58.628906 22.808594 58.515625 23.28125 58.492188 C 25.183594 58.449219 26.890625 60.273438 26.898438 62.339844 Z M 25.234375 63.589844 L 21.578125 60.8125 C 20.921875 62.34375 21.195312 63.640625 22.285156 64.28125 C 23.375 64.925781 24.324219 64.707031 25.234375 63.589844 Z M 22.40625 60.394531 C 22.617188 60.816406 23.355469 61.101562 23.742188 61.363281 L 25.445312 62.527344 C 25.523438 62.5625 25.5625 62.621094 25.566406 62.707031 C 25.496094 62.222656 25.382812 61.753906 25.226562 61.292969 C 24.808594 59.878906 23.578125 60.082031 22.40625 60.40625 Z M 22.40625 60.394531 "
            fillOpacity="1"
            fillRule="nonzero"
          />
        </g>
      </g>
    </g>
  </g>
  <g clipPath="url(#f720302989)">
    <path
      fill="#9c710e"
      class="classTag"
      d="M 26.972656 31.390625 C 26.679688 31.390625 26.398438 31.449219 26.125 31.558594 C 25.855469 31.671875 25.613281 31.832031 25.40625 32.039062 C 25.199219 32.25 25.039062 32.488281 24.925781 32.757812 C 24.816406 33.03125 24.757812 33.3125 24.757812 33.605469 C 24.757812 33.746094 24.773438 33.882812 24.800781 34.019531 L 19.546875 37.082031 C 19.132812 36.734375 18.65625 36.558594 18.117188 36.558594 C 17.824219 36.558594 17.539062 36.613281 17.269531 36.726562 C 16.996094 36.839844 16.757812 37 16.550781 37.207031 C 16.34375 37.414062 16.183594 37.652344 16.070312 37.925781 C 15.957031 38.195312 15.902344 38.480469 15.902344 38.773438 C 15.902344 39.066406 15.957031 39.347656 16.070312 39.621094 C 16.183594 39.890625 16.34375 40.132812 16.550781 40.339844 C 16.757812 40.546875 16.996094 40.707031 17.269531 40.820312 C 17.539062 40.929688 17.824219 40.988281 18.117188 40.988281 C 18.65625 40.984375 19.132812 40.8125 19.542969 40.460938 L 24.800781 43.527344 C 24.773438 43.664062 24.757812 43.800781 24.757812 43.941406 C 24.757812 44.234375 24.816406 44.515625 24.925781 44.785156 C 25.039062 45.058594 25.199219 45.296875 25.40625 45.503906 C 25.613281 45.710938 25.855469 45.871094 26.125 45.984375 C 26.398438 46.097656 26.679688 46.152344 26.972656 46.152344 C 27.265625 46.152344 27.550781 46.097656 27.820312 45.984375 C 28.089844 45.871094 28.332031 45.710938 28.539062 45.503906 C 28.746094 45.296875 28.90625 45.058594 29.019531 44.785156 C 29.132812 44.515625 29.1875 44.234375 29.1875 43.941406 C 29.1875 43.644531 29.132812 43.363281 29.019531 43.09375 C 28.90625 42.820312 28.746094 42.582031 28.539062 42.375 C 28.332031 42.167969 28.089844 42.007812 27.820312 41.894531 C 27.550781 41.78125 27.265625 41.726562 26.972656 41.726562 C 26.433594 41.726562 25.957031 41.902344 25.542969 42.25 L 20.289062 39.1875 C 20.316406 39.050781 20.328125 38.910156 20.332031 38.773438 C 20.328125 38.632812 20.316406 38.496094 20.289062 38.359375 L 25.542969 35.296875 C 25.953125 35.644531 26.433594 35.820312 26.972656 35.820312 C 27.265625 35.820312 27.550781 35.765625 27.820312 35.652344 C 28.089844 35.539062 28.332031 35.378906 28.539062 35.171875 C 28.746094 34.964844 28.90625 34.726562 29.019531 34.453125 C 29.132812 34.183594 29.1875 33.898438 29.1875 33.605469 C 29.1875 33.3125 29.132812 33.03125 29.019531 32.757812 C 28.90625 32.488281 28.746094 32.25 28.539062 32.039062 C 28.332031 31.832031 28.089844 31.671875 27.820312 31.558594 C 27.550781 31.449219 27.265625 31.390625 26.972656 31.390625 Z M 26.972656 31.390625 "
      fillOpacity="1"
      fillRule="nonzero"
    />
  </g>
</svg>



