<svg xmlns="http://www.w3.org/2000/svg" width="100" height="100" viewBox="0 0 48 48">

<path fill="#00dba8" class="classTag" d="M44 19c0 11.05-13.5 22.5-20 22.5S4 30.05 4 19S13 1.5 24 1.5S44 8 44 19"/>


<path fill="#00ad85" class="classTag" d="M24 38.39c-6.22 0-18.82-10.47-19.91-21C4 17.89 4 18.43 4 19c0 11.05 13.5 22.5 20 22.5S44 30.05 44 19c0-.57 0-1.11-.08-1.65c-1.1 10.57-13.7 21.04-19.92 21.04"/>


<path fill="none" stroke="#45413c" class="classTag" stroke-linecap="round" d="M29 30a9 9 0 0 1-10 0"/>

<path fill="#45413c" class="classTag" d="M8 45.5a16 1.5 0 1 0 32 0a16 1.5 0 1 0-32 0" opacity=".15"/>



<path fill="none" stroke="#45413c" class="classTag" stroke-linecap="round" stroke-linejoin="round" d="M44 19c0 11.05-13.5 22.5-20 22.5S4 30.05 4 19S13 1.5 24 1.5S44 8 44 19"/>
<path fill="#bf8df2" class="classTag" d="M10.88 12.41c-2.37 1.81-2.44 5.7-.17 8.69s6.28 3.45 9 3.06a8.78 8.78 0 0 0-.41-9.61c-2.3-2.99-6.04-3.94-8.42-2.14"/>



<path fill="#dabff5" class="classTag" d="M19.3 14.55c-2.27-3-6-3.94-8.42-2.14a5.3 5.3 0 0 0-1.67 5.44a4.64 4.64 0 0 1 1.67-2.71c2.38-1.81 6.15-.85 8.42 2.13A8.24 8.24 0 0 1 20.85 21a8.71 8.71 0 0 0-1.55-6.45"/>



<path fill="none" stroke="#45413c" class="classTag" stroke-linecap="round" stroke-linejoin="round" d="M10.88 12.41c-2.37 1.81-2.44 5.7-.17 8.69s6.28 3.45 9 3.06a8.78 8.78 0 0 0-.41-9.61c-2.3-2.99-6.04-3.94-8.42-2.14"/>



<path fill="#bf8df2" class="classTag" d="M37.12 12.41c2.37 1.81 2.44 5.7.17 8.69s-6.28 3.45-9 3.06a8.78 8.78 0 0 1 .41-9.61c2.3-2.99 6.04-3.94 8.42-2.14"/>





<path fill="#dabff5" class="classTag" d="M28.7 14.55c2.27-3 6-3.94 8.42-2.14a5.3 5.3 0 0 1 1.67 5.44a4.64 4.64 0 0 0-1.67-2.71c-2.38-1.81-6.15-.85-8.42 2.13A8.24 8.24 0 0 0 27.15 21a8.71 8.71 0 0 1 1.55-6.45"/>



<path fill="none" stroke="#45413c" class="classTag" stroke-linecap="round" stroke-linejoin="round" d="M37.12 12.41c2.37 1.81 2.44 5.7.17 8.69s-6.28 3.45-9 3.06a8.78 8.78 0 0 1 .41-9.61c2.3-2.99 6.04-3.94 8.42-2.14M25.5 26v1.5m-3-1.5v1.5"/>



<path fill="#00ad85" class="classTag" d="M10.81 28.17a2.5 1.5 0 1 0 5 0a2.5 1.5 0 1 0-5 0m21.38 0a2.5 1.5 0 1 0 5 0a2.5 1.5 0 1 0-5 0"/>


<path fill="#00f5bc" class="classTag" d="M18.04 5.39a6 1.5 0 1 0 12 0a6 1.5 0 1 0-12 0"/>




</svg>





<svg xmlns="http://www.w3.org/2000/svg" viewBox="0 0 85.23938 85.23938">
  <defs>
    <style>
      .cls-1{fill:#bbd4ef;stroke:#2b72ad;}.cls-1,.cls-5{stroke-miterlimit:10;stroke-width:0.2px;}.cls-2{fill:#83a3cf;}.cls-2,.cls-3{opacity:0.3;}.cls-3,.cls-7{fill:#fff;}.cls-4,.cls-5{fill:#6c8cc0;}.cls-5{stroke:#285192;}.cls-6{fill:#5570ad;opacity:0.4;}.cls-7{opacity:0.6;}
    </style>
  </defs>
  <title>资源 45</title>
  <g id="图层_2" data-name="图层 2">
    <g id="图层_1-2" data-name="图层 1">
      <circle class="cls-1" cx="42.61969" cy="42.61969" r="42.51969" fill="#e5cee0" stroke="#a62bad" style="fill: rgb(229, 206, 224); stroke: rgb(166, 43, 173);"/>
      <path class="cls-2" d="M83.38711,47.884A41.20422,41.20422,0,0,1,50.49235,82.96573c-2.54876.49636-2.9261-1.35427-.63231-2.506C66.15371,72.2786,76.47021,60.88879,82.12216,46.995,82.70474,45.56287,83.60849,46.16,83.38711,47.884Z" fill="#b08cb2" style="fill: rgb(176, 140, 178);"/>
      <path class="cls-3" d="M1.74,37.03051A41.20422,41.20422,0,0,1,34.63474,1.94878c2.54877-.49635,2.92611,1.35428.63231,2.506C18.97338,12.63592,8.65689,24.02572,3.00493,37.91955,2.42236,39.35165,1.51861,38.75452,1.74,37.03051Z" fill="#ebdae7" style="fill: rgb(235, 218, 231);"/>
      <circle class="cls-4" cx="41.74197" cy="46.19864" r="24.58407" fill="#bc6cc0" style="fill: rgb(188, 108, 192);"/>
      <circle class="cls-5" cx="40.31904" cy="43.61973" r="24.61181" fill="#bc6cc0" stroke="#8c2892" style="fill: rgb(188, 108, 192); stroke: rgb(140, 40, 146);"/>
      <path class="cls-6" d="M63.09416,43.61922A22.80106,22.80106,0,0,1,40.31893,66.39508c-3.84773,0-2.26738-2.41279-.37713-3.28739a44.48815,44.48815,0,0,0,19.881-17.206C60.94984,44.06223,63.09416,40.82137,63.09416,43.61922Z" fill="#be9db7" style="fill: rgb(190, 157, 183);"/>
      <path class="cls-7" d="M30.05509,25.80065c.37111.55835-.23811,1.2782-1.16871,1.89672s-1.83018.90148-2.20129.34312.08245-1.51241,1.013-2.13092S29.684,25.24229,30.05509,25.80065Z" fill="#ebdae7" style="fill: rgb(235, 218, 231);"/>
    </g>
  </g>
</svg>






