
<svg id="_图层_2" data-name="图层 2" xmlns="http://www.w3.org/2000/svg" viewBox="0 0 78.51051 85.14144">
  <defs>
    <style>
      .cls-1 {
        stroke-width: .15937px;
      }

      .cls-1, .cls-2, .cls-3, .cls-4, .cls-5, .cls-6, .cls-7, .cls-8 {
        stroke-miterlimit: 10;
      }

      .cls-1, .cls-7 {
        fill: #cea96a;
        stroke: #a97533;
      }

      .cls-2 {
        stroke-width: .14396px;
      }

      .cls-2, .cls-3 {
        fill: #899c6d;
        stroke: #4d5c32;
      }

      .cls-9 {
        fill: #d0b2aa;
      }

      .cls-3, .cls-4, .cls-5, .cls-6, .cls-7 {
        stroke-width: .20415px;
      }

      .cls-4 {
        fill: #9478a4;
        stroke: #6d4d74;
      }

      .cls-5 {
        fill: #7087b4;
        stroke: #334e87;
      }

      .cls-6, .cls-8 {
        fill: #bd6e60;
        stroke: #692020;
      }

      .cls-8 {
        stroke-width: .26887px;
      }
    </style>
  </defs>
  <g id="_图层_1-2" data-name="图层 1">
    <g>
      <path class="cls-9" d="M13.97327,5.24725c6.1419-1.66892,12.47186-2.75775,18.8559-3.0186,6.38145-.28711,12.7819,.07227,19.11389,.92785,3.16395,.44564,6.31647,1.00093,9.43061,1.75228,3.11121,.75496,6.20514,1.64272,9.18132,2.92151,1.48326,.64756,2.94406,1.38056,4.30378,2.34731,.66481,.50803,1.33495,1.03058,1.87339,1.75355,.53492,.694,.98725,1.63375,.87919,2.66473-.11351,1.02432-.68054,1.8195-1.25982,2.45649-.58921,.65478-1.27399,1.13615-1.95148,1.62032-1.38264,.91252-2.84394,1.63225-4.3258,2.2785-5.95852,2.51035-12.21004,4.01293-18.49019,5.21222-6.28819,1.16531-12.67197,1.89442-19.078,2.03004-6.39849,.13731-12.79717-.11248-19.16494-.89128-3.18205-.43505-6.36033-.88262-9.49762-2.07151-.77671-.34094-1.58194-.66126-2.31535-1.50469-.17014-.25656-.33284-.52395-.38471-.89732-.04965-.33695,.0143-.73285,.14488-.98426,.24771-.56937,.60834-.89109,.94922-1.20079,.69808-.58684,1.43217-.99538,2.17514-1.36461,.742-.37377,1.49734-.68621,2.25729-.9784,3.04673-1.1388,6.17259-1.91684,9.32143-2.54191,3.15037-.6188,6.32955-1.05999,9.52204-1.35209,6.37993-.57594,12.84125-.53759,19.20413,.25983,6.35092,.80353,12.67101,2.00758,18.75214,4.19201,1.51491,.55956,3.01125,1.19415,4.45156,1.98095,1.43252,.78776,2.84282,1.72427,3.95449,3.09688,.54442,.6874,.97822,1.54793,1.09556,2.49518,.12136,.94962-.10906,1.89432-.48791,2.69374-.7848,1.60958-2.03163,2.77463-3.30002,3.8125-2.58493,2.04356-5.49264,3.5025-8.44673,4.77297-2.96341,1.26029-6.02088,2.26557-9.12126,3.09231-6.19928,1.63555-12.61653,2.56228-19.05022,2.45422-3.21102-.05087-6.41478-.31054-9.59141-.78549-3.17177-.50557-6.33666-1.11459-9.3885-2.37211-.75904-.3363-1.51606-.69182-2.22829-1.30944-.32353-.30917-.77135-.75356-.75537-1.50609,.068-.73403,.50856-1.12895,.84748-1.43345,1.47068-1.0945,3.02863-1.51996,4.5817-2.00369,3.1181-.87449,6.28731-1.3918,9.46756-1.77969,6.35578-.7744,12.81692-.82898,19.18242-.14825,3.18439,.32814,6.35616,.79733,9.49506,1.47691,3.12947,.70316,6.26498,1.52877,9.19185,3.08648,.72275,.40913,1.43174,.87094,2.07113,1.46865,.62806,.59071,1.21945,1.37464,1.3909,2.3627,.18223,.99357-.15706,1.96562-.62102,2.70461-.46402,.76138-1.05737,1.37666-1.6758,1.93588-2.51789,2.19196-5.45915,3.60632-8.42215,4.85159-5.96784,2.41494-12.26509,3.93352-18.67707,4.51523-3.20953,.26335-6.42874,.26254-9.63421,.04137-3.20386-.24895-6.40291-.63101-9.54665-1.5992-.7848-.26419-1.56624-.54211-2.33688-1.05192-.36019-.2669-.83028-.57239-1.00591-1.31511-.04838-.18002-.0185-.36739,.00542-.54993,.04654-.15553,.10333-.32932,.17927-.44925,.14918-.25821,.32471-.44916,.50099-.6132,.71238-.63977,1.46694-.98298,2.22296-1.3315,.75823-.33256,1.52687-.60581,2.30068-.85203,3.09779-.96859,6.26934-1.54322,9.46254-1.91672,6.40182-.74674,12.89576-.31446,19.18834,1.02401,1.57316,.35645,3.14078,.77789,4.66484,1.38629,.75911,.31045,1.50915,.66101,2.2285,1.09858,.71637,.43676,1.41513,.96747,1.95463,1.7058,.56435,.70892,.83371,1.75851,.63142,2.6729-.20416,.90688-.68522,1.65079-1.21655,2.2946-1.08787,1.27714-2.39531,2.26539-3.76459,3.1209-2.72828,1.73405-5.70829,2.99723-8.76655,3.98081-3.06735,.96034-6.2562,1.57456-9.4922,1.71452-3.23083,.07224-6.45512-.17865-9.62023-1.0227-.79026-.23852-1.57687-.47735-2.35273-1.00756-.19198-.14915-.3901-.3082-.55847-.57445-.18017-.25733-.2378-.72403-.10342-1.02423,.25369-.60426,.64964-.84583,1.00314-1.11273,1.46884-.93859,3.03424-1.37897,4.60893-1.77869,3.15641-.74054,6.41288-.99569,9.64898-.70659,1.59406,.14335,3.20199,.36103,4.78443,.73378,1.56917,.40271,3.17651,.87165,4.56566,1.92211,.6812,.51074,1.33343,1.2196,1.58416,2.13546,.28905,.89604,.15089,1.86504-.16837,2.66785-.66706,1.62222-1.83557,2.8432-3.04991,3.92947-1.22699,1.06933-2.60941,2.01391-4.15575,2.6343-1.5398,.61581-3.18971,.93252-4.8396,.95389-1.65281,.02255-3.28345-.2512-4.85305-.68238-.78658-.22067-1.56257-.48324-2.32139-.83443-.38038-.1689-.7535-.3829-1.12126-.63447-.18204-.1437-.36511-.28549-.53626-.49919-.08788-.08264-.16264-.25674-.23095-.3881-.05243-.155-.09379-.3824-.05405-.55878,.04473-.19167,.12086-.37228,.21777-.47448,.09314-.13445,.19223-.22771,.28989-.30035,.19899-.17806,.39405-.26942,.59198-.38539,.39324-.19463,.78636-.35381,1.1806-.47642,.7882-.25668,1.58032-.43857,2.37516-.59457,1.58998-.30384,3.19034-.4881,4.79736-.59027,1.60711-.0971,3.22155-.1147,4.84259,.02489,.80985,.07373,1.62182,.19263,2.43176,.4058,.79284,.2293,1.6616,.48539,2.32264,1.31592,.32073,.45486,.35966,1.06834,.22945,1.51815-.12049,.46445-.33343,.85729-.56781,1.21957-.48504,.71007-1.07242,1.3029-1.70013,1.8389-1.25742,1.05407-2.74255,1.89124-4.35963,2.28208-1.61219,.39873-3.28179,.39172-4.88386,.19033-.80278-.09881-1.59478-.24391-2.37435-.38349-.76029-.12354-1.59683-.30537-2.20511-.16451-.53797,.07828-.42492,.92825-.07436,1.56192,.32748,.66017,.84823,1.23973,1.42688,1.71399,.58768,.4681,1.27773,.80521,2.00067,.93187,.72313,.11544,1.49656,.02006,2.20268-.23497,.352-.12741,.69366-.294,.98055-.50757,.13295-.1099,.26951-.22942,.33692-.35057,.0671-.13005,.0661-.16522-.00383-.28316-.15136-.23294-.50308-.44193-.83751-.58806-.3444-.14912-.70976-.26662-1.08407-.34599-1.48089-.32169-3.17233-.15177-4.21054,1.02787-1.0579,1.11827-1.59506,2.67221-1.85358,4.21089-.27188,1.5531-.24357,3.15183-.07426,4.72471l-.15183,.01981c-.20995-1.58014-.28026-3.19488-.0428-4.78677,.22846-1.57712,.72487-3.19414,1.83794-4.43732,.54809-.61697,1.30586-1.08422,2.13038-1.2524,.81711-.19017,1.65867-.15099,2.46656,.00324,.40489,.08062,.80225,.20139,1.18926,.36328,.38134,.17544,.77334,.35022,1.07986,.77667,.17373,.2045,.17746,.62394,.02352,.83365-.1299,.22846-.30219,.37215-.47143,.51722-.3487,.26637-.72876,.45408-1.12123,.60292-.78387,.29285-1.63833,.41598-2.48845,.2935-.84782-.13628-1.63312-.51442-2.29423-1.02638-.65341-.52246-1.23156-1.145-1.62552-1.90653-.19519-.37963-.36605-.78748-.38692-1.27331-.0028-.24322,.0324-.51168,.18494-.76203,.14921-.25092,.42477-.42511,.66201-.48507,.95869-.21341,1.7262,.01448,2.52425,.11426,.78773,.13052,1.56313,.26173,2.34065,.34711,1.55033,.17444,3.11639,.15391,4.59625-.23273,1.47958-.37826,2.82762-1.16067,3.99215-2.16025,.57448-.5023,1.10597-1.06067,1.5108-1.67107,.39159-.60335,.63656-1.32156,.32562-1.70493-.34375-.4391-1.07662-.74007-1.7971-.91327-.73123-.18257-1.50039-.28739-2.27473-.34702-1.5497-.13024-3.12523-.11482-4.69232-.01797-1.56715,.10071-3.13342,.28294-4.66824,.57772-.76537,.15058-1.52615,.32733-2.25043,.5641-.36546,.11301-.71039,.25696-1.03005,.41399-.30397,.14083-.58853,.41944-.5694,.43969-.05501-.0481,.13924,.26793,.42013,.44869,.28954,.19488,.60672,.38218,.95417,.53492,.68519,.3168,1.42065,.56684,2.16499,.77452,1.49419,.40901,3.03415,.66425,4.56607,.64133,1.53073-.02093,3.05626-.31671,4.47103-.88371,1.41258-.56737,2.69455-1.44065,3.8621-2.45864,1.14447-1.01519,2.22137-2.18614,2.76414-3.529,.57843-1.34274,.14825-2.77205-1.08385-3.60623-1.15839-.88682-2.6843-1.35816-4.17563-1.73262-1.51594-.35546-3.06823-.56625-4.64195-.70634-3.10196-.27606-6.27109-.02607-9.30567,.68995-1.49622,.37169-3.04109,.83994-4.25821,1.62724-.2825,.18703-.56336,.45287-.60479,.59893-.01782,.06987-.0228,.03673,.01202,.11653,.04448,.07317,.1546,.17516,.27637,.26796,.54018,.37589,1.2939,.63363,2.02207,.84468,2.98692,.79776,6.17717,1.04961,9.29679,.9765,3.12508-.07735,6.24897-.61693,9.26729-1.50167,3.01969-.87234,5.96494-2.0915,8.6112-3.77257,1.29779-.8619,2.55437-1.83467,3.47175-3.03605,.44919-.59747,.80701-1.25976,.91844-1.92043,.09249-.6579-.08738-1.27281-.5346-1.79894-.89075-1.05307-2.32248-1.76234-3.74301-2.30965-1.4365-.55956-2.9487-.97794-4.47694-1.32025-6.14281-1.30418-12.51924-1.73013-18.76404-.9966-3.12193,.36483-6.24,.93395-9.21742,1.86682-.7416,.23596-1.47354,.49729-2.17206,.80406-.68487,.30736-1.39124,.66055-1.86208,1.09428-.23752,.21254-.34256,.44047-.2968,.44215-.01181,.05324,.18591,.30789,.46629,.48031,.55666,.373,1.28595,.65145,2.00553,.88832,2.94481,.90909,6.11069,1.29854,9.23969,1.53721,3.14146,.21615,6.30267,.21559,9.4351-.04236,6.25716-.57055,12.47012-2.05995,18.29797-4.41321,2.88453-1.20119,5.7619-2.60876,8.05619-4.60974,1.09955-.97383,2.12745-2.28137,1.8989-3.4829-.21086-1.21674-1.53569-2.20919-2.82335-2.93696-2.70149-1.44616-5.78455-2.28068-8.84642-2.96671-3.07947-.67017-6.21112-1.13737-9.35454-1.46445-6.2899-.67843-12.63104-.63064-18.91001,.12632-3.13093,.38732-6.26053,.90791-9.26994,1.75925-1.46843,.44146-3.03586,.94364-4.12404,1.77249-.25073,.20369-.4001,.44642-.39346,.52467-.02844,.06679,.10143,.30976,.34798,.51999,.49127,.42925,1.18605,.78082,1.87903,1.07893,2.8427,1.16895,5.98048,1.78156,9.08002,2.26473,3.11691,.45975,6.2695,.70892,9.41996,.75238,6.29837,.0937,12.59391-.82714,18.68679-2.44737,3.04387-.81804,6.04471-1.81208,8.93454-3.04826,2.87706-1.24094,5.70648-2.68031,8.11641-4.5974,1.18098-.9599,2.29962-2.05524,2.90755-3.33005,.29571-.63279,.4429-1.29396,.36125-1.92747-.08012-.63313-.37405-1.25458-.81589-1.8099-.89797-1.11008-2.18025-1.99213-3.52885-2.72249-1.35367-.73624-2.79469-1.34623-4.26391-1.88513-5.90965-2.11194-12.17615-3.30027-18.43649-4.07713-6.26965-.77262-12.60534-.79674-18.8949-.21749-3.14286,.29387-6.27292,.73484-9.36498,1.34872-3.08723,.61809-6.15545,1.39267-9.06889,2.48911-1.42921,.55625-2.90727,1.19434-3.9814,2.07459-.24727,.21528-.47863,.4638-.53629,.63563-.06062,.17837-.06433,.15899,.04601,.35455,.3134,.37343,1.00258,.74833,1.67845,1.01756,2.82295,1.07644,6.00378,1.55329,9.11032,1.96983,6.26467,.76683,12.6155,1.01607,18.93636,.87969,6.31859-.14258,12.61886-.85075,18.84858-1.95684,6.20882-1.14752,12.418-2.61293,18.21239-5.01909,1.43582-.61584,2.84189-1.30315,4.1208-2.13742,.61544-.43502,1.24427-.8758,1.72218-1.40828,.48511-.51953,.86343-1.11045,.92149-1.68265,.13311-1.16556-1.01089-2.36946-2.2-3.23245-1.23029-.8857-2.62271-1.6007-4.04878-2.23118-5.75682-2.48319-12.00442-3.87773-18.24326-4.87611-12.51457-1.93348-25.42095-1.7558-37.79124,1.27667l-.03832-.14828Z" fill="#e0a9a9" style="fill: rgb(224, 169, 169);"></path>


      <path class="cls-3" d="M30.22717,.52051c-1.15472,.46475-1.71405,1.77758-1.2493,2.9323s1.77759,1.71405,2.9323,1.2493c1.15468-.46474,1.71402-1.77751,1.24933-2.93222-.4647-1.15474-1.77752-1.71412-2.93225-1.24942-.00003,.00001-.00006,.00002-.00009,.00003Z" fill="#ecbbbc" stroke="#5c3232" style="fill: rgb(236, 187, 188); stroke: rgb(92, 50, 50);"></path>


      <path class="cls-3" d="M24.22741,25.54567c-1.15472,.46474-1.71405,1.77758-1.24931,2.9323,.46474,1.15472,1.77758,1.71405,2.9323,1.24931,1.15469-.46473,1.71403-1.77752,1.24934-2.93222-.4647-1.15473-1.77752-1.71412-2.93225-1.24941-.00002,0-.00005,.00002-.00007,.00003Z" fill="#ecbbbc" stroke="#5c3232" style="fill: rgb(236, 187, 188); stroke: rgb(92, 50, 50);"></path>
      <path class="cls-3" d="M34.99805,29.90733c-1.15472,.46474-1.71405,1.77758-1.24931,2.9323,.46474,1.15472,1.77758,1.71405,2.9323,1.24931,1.15469-.46473,1.71403-1.77752,1.24934-2.93222-.4647-1.15473-1.77752-1.71412-2.93225-1.24941-.00002,0-.00005,.00002-.00007,.00003Z" fill="#ecbbbc" stroke="#5c3232" style="fill: rgb(236, 187, 188); stroke: rgb(92, 50, 50);"></path>
      <path class="cls-3" d="M14.88736,48.17404c-1.15472,.46474-1.71405,1.77758-1.24931,2.9323,.46474,1.15472,1.77758,1.71405,2.9323,1.24931,1.15469-.46473,1.71403-1.77752,1.24934-2.93222-.4647-1.15473-1.77752-1.71412-2.93225-1.24941-.00002,0-.00005,.00002-.00007,.00003Z" fill="#ecbbbc" stroke="#5c3232" style="fill: rgb(236, 187, 188); stroke: rgb(92, 50, 50);"></path>



      <path class="cls-2" d="M26.88178,61.06972c-.8143,.32774-1.20874,1.25354-.88101,2.06784,.32774,.8143,1.25354,1.20874,2.06784,.88101,.81428-.32773,1.20873-1.2535,.88103-2.06779-.32771-.81431-1.2535-1.20879-2.06781-.88108l-.00005,.00002Z" fill="#ecbbbc" stroke="#5c3232" style="fill: rgb(236, 187, 188); stroke: rgb(92, 50, 50);"></path>



      <path class="cls-4" d="M71.83406,7.11256c-1.15472,.46475-1.71405,1.77759-1.2493,2.9323,.46475,1.15472,1.77759,1.71405,2.9323,1.2493,1.15468-.46474,1.71402-1.77751,1.24933-2.93222-.4647-1.15474-1.77752-1.71412-2.93225-1.24942-.00003,.00001-.00006,.00002-.00009,.00003Z" fill="#f8e3e4" stroke="#744d4d" style="fill: rgb(248, 227, 228); stroke: rgb(116, 77, 77);"></path>
      <path class="cls-4" d="M66.27485,17.85649c-1.65209,.66484-2.45242,2.54309-1.78758,4.19518s2.54309,2.45242,4.19518,1.78758c1.65209-.66484,2.45242-2.54309,1.78758-4.19518,0-.00001-.00001-.00003-.00002-.00004-.66486-1.65207-2.54309-2.45237-4.19516-1.78754Z" fill="#f8e3e4" stroke="#744d4d" style="fill: rgb(248, 227, 228); stroke: rgb(116, 77, 77);"></path>
      <path class="cls-4" d="M11.02123,35.08791c-1.31121,.52769-1.94637,2.0184-1.41869,3.32961,.52769,1.31121,2.0184,1.94637,3.32961,1.41869,1.3112-.52769,1.94637-2.01839,1.41869-3.32959-.52767-1.3112-2.01837-1.94638-3.32957-1.41871-.00001,0-.00003,.00001-.00004,.00002Z" fill="#f8e3e4" stroke="#744d4d" style="fill: rgb(248, 227, 228); stroke: rgb(116, 77, 77);"></path>
      <path class="cls-4" d="M40.43479,64.36614c-.85235,.34302-1.19399,1.41355-.59753,2.20855,.28821,.38414,.77674,.59922,1.25433,.54887,1.23352-.13003,1.77912-1.60814,.82153-2.52095-.39098-.37269-.98184-.44925-1.47831-.23648h-.00002Z" fill="#f8e3e4" stroke="#744d4d" style="fill: rgb(248, 227, 228); stroke: rgb(116, 77, 77);"></path>
      <path class="cls-7" d="M50.71846,23.5869c-1.15472,.46473-1.71407,1.77756-1.24934,2.93228,.46473,1.15472,1.77756,1.71407,2.93229,1.24934,1.15469-.46472,1.71404-1.77748,1.24937-2.93219-.4647-1.15473-1.77752-1.71412-2.93225-1.24941l-.00007,.00003v-.00005Z" fill="#f6dadb" stroke="#a93333" style="fill: rgb(246, 218, 219); stroke: rgb(169, 51, 51);"></path>
      <path class="cls-1" d="M40.92764,55.90368c-.90143,.36279-1.33808,1.38765-.97529,2.28908,.36279,.90143,1.38765,1.33808,2.28908,.97529,.9014-.36278,1.33806-1.38759,.97532-2.289-.36277-.90144-1.38761-1.33812-2.28906-.97535l-.00005,.00002v-.00004Z" fill="#f6dadb" stroke="#a93333" style="fill: rgb(246, 218, 219); stroke: rgb(169, 51, 51);"></path>
      <path class="cls-1" d="M30.76757,68.16027c-.90143,.36279-1.33808,1.38765-.97529,2.28908,.36279,.90143,1.38765,1.33808,2.28908,.97529,.9014-.36278,1.33806-1.38759,.97532-2.289-.36277-.90144-1.38761-1.33812-2.28906-.97535l-.00005,.00002v-.00004Z" fill="#f6dadb" stroke="#a93333" style="fill: rgb(246, 218, 219); stroke: rgb(169, 51, 51);"></path>
      <path class="cls-7" d="M39.65119,12.67614c-1.5379,.61891-2.2829,2.36735-1.66398,3.90525,.61891,1.5379,2.36735,2.28289,3.90525,1.66398,1.53789-.61891,2.28289-2.36733,1.664-3.90523-.6189-1.53791-2.36733-2.28291-3.90524-1.66401,0,0-.00002,0-.00002,0Z" fill="#f6dadb" stroke="#a93333" style="fill: rgb(246, 218, 219); stroke: rgb(169, 51, 51);"></path>
      <path class="cls-7" d="M3.10999,18.76848c-1.66124,.00002-3.00793,1.34673-3.00792,3.00797,.00001,1.66124,1.34672,3.00793,3.00797,3.00792,1.66124-.00002,3.00793-1.34673,3.00792-3.00797-.00001-1.66122-1.3467-3.0079-3.00792-3.00792h-.00005Z" fill="#f6dadb" stroke="#a93333" style="fill: rgb(246, 218, 219); stroke: rgb(169, 51, 51);"></path>
      <path class="cls-6" d="M55.19826,15.73901c-.82886,.33357-1.23037,1.2759-.89681,2.10476,.33357,.82886,1.2759,1.23038,2.10476,.89681,.82887-.33357,1.23038-1.2759,.89681-2.10476h0c-.33356-.82886-1.27588-1.23038-2.10474-.89682,0,0,0,0-.00002,0Z" fill="#bd6060" stroke="#692020" style="fill: rgb(189, 96, 96); stroke: rgb(105, 32, 32);"></path>


		  <path class="cls-8" d="M57.11124,36.11822c-1.09165,.43932-1.62047,1.68043-1.18115,2.77208,.43933,1.09165,1.68043,1.62047,2.77208,1.18115,1.09166-.43932,1.62048-1.68043,1.18115-2.77208h0c-.43932-1.09165-1.68041-1.62047-2.77206-1.18116,0,0-.00001,0-.00002,0Z" fill="#bd6060" stroke="#692020" style="fill: rgb(189, 96, 96); stroke: rgb(105, 32, 32);"></path>
      <path class="cls-8" d="M27.91797,51.61277c-1.09165,.43932-1.62047,1.68043-1.18115,2.77208,.43933,1.09165,1.68043,1.62047,2.77208,1.18115,1.09166-.43932,1.62048-1.68043,1.18115-2.77208h0c-.43932-1.09165-1.68041-1.62047-2.77206-1.18116,0,0-.00001,0-.00002,0Z" fill="#bd6060" stroke="#692020" style="fill: rgb(189, 96, 96); stroke: rgb(105, 32, 32);"></path>


      <path class="cls-6" d="M76.18628,13.16217c-.82886,.33356-1.23038,1.2759-.89681,2.10476,.33356,.82886,1.2759,1.23038,2.10476,.89681,.82886-.33356,1.23037-1.27589,.89681-2.10475-.33356-.82886-1.27589-1.23038-2.10475-.89682h0Z" fill="#bd6060" stroke="#692020" style="fill: rgb(189, 96, 96); stroke: rgb(105, 32, 32);"></path>


      <path class="cls-5" d="M49.22862,.37664c-1.93847,.78011-2.87749,2.98396-2.09738,4.92242,.78011,1.93846,2.98396,2.87749,4.92242,2.09738,1.93846-.78011,2.87749-2.98395,2.09738-4.92241-.78011-1.93847-2.98395-2.87751-4.92241-2.0974,0,0-.00001,0-.00002,0Z" fill="#b47070" stroke="#873333" style="fill: rgb(180, 112, 112); stroke: rgb(135, 51, 51);"></path>
      <path class="cls-5" d="M40.42601,39.89955c-1.19913,.48258-1.78,1.84587-1.29742,3.045s1.84587,1.78,3.045,1.29742c1.19912-.48258,1.78-1.84586,1.29743-3.04498-.48257-1.19913-1.84586-1.78002-3.04499-1.29745h-.00002Z" fill="#b47070" stroke="#873333" style="fill: rgb(180, 112, 112); stroke: rgb(135, 51, 51);"></path>
      <path class="cls-5" d="M50.19997,48.73628c-1.19913,.48258-1.78,1.84587-1.29742,3.045s1.84587,1.78,3.045,1.29742c1.19912-.48258,1.78-1.84586,1.29743-3.04498-.48257-1.19913-1.84586-1.78002-3.04499-1.29745h-.00002Z" fill="#b47070" stroke="#873333" style="fill: rgb(180, 112, 112); stroke: rgb(135, 51, 51);"></path>
      <path class="cls-5" d="M18.47727,13.84906c-1.19911,.48259-1.77997,1.84587-1.29739,3.04498,.48259,1.19911,1.84587,1.77997,3.04499,1.29738,1.19908-.48258,1.77994-1.84582,1.29741-3.04492-.48257-1.19912-1.84584-1.78-3.04496-1.29743-.00002,0-.00003,.00001-.00005,.00002v-.00004Z" fill="#b47070" stroke="#873333" style="fill: rgb(180, 112, 112); stroke: rgb(135, 51, 51);"></path>
    </g>
  </g>
</svg>
